<svg width="170" height="80" viewBox="0 0 170 80" fill="none" xmlns="http://www.w3.org/2000/svg">
<path d="M62.3889 24.2779C62.3769 24.2952 62.366 24.3135 62.353 24.3317C62.366 24.3125 62.3779 24.2952 62.3889 24.2779Z" fill="#1E0342"/>
<path d="M60.9859 25.8839C60.9849 25.8859 60.9819 25.8879 60.9809 25.8899C60.9819 25.8869 60.9859 25.8839 60.9859 25.8839Z" fill="#1E0342"/>
<path d="M62.6013 23.9232C62.5913 23.9434 62.5803 23.9636 62.5693 23.9847C62.5813 23.9636 62.5913 23.9434 62.6013 23.9232Z" fill="#1E0342"/>
<path d="M62.7528 23.3715C62.7538 23.384 62.7518 23.3965 62.7528 23.41C62.7518 23.3975 62.7538 23.384 62.7528 23.3715Z" fill="#1E0342"/>
<path d="M62.7498 23.4907C62.7478 23.507 62.7439 23.5234 62.7399 23.5397C62.7439 23.5234 62.7478 23.506 62.7498 23.4907Z" fill="#1E0342"/>
<path d="M62.722 23.6224C62.717 23.6406 62.7099 23.6599 62.7049 23.6781C62.7109 23.6589 62.718 23.6397 62.722 23.6224Z" fill="#1E0342"/>
<path d="M62.5076 24.0924C62.4956 24.1126 62.4846 24.1328 62.4716 24.152C62.4836 24.1328 62.4956 24.1126 62.5076 24.0924Z" fill="#1E0342"/>
<path d="M116.517 49.5549C116.521 49.577 116.524 49.6 116.527 49.6231C116.523 49.6 116.52 49.5779 116.517 49.5549Z" fill="#1E0342"/>
<path d="M116.453 50.5516C116.449 50.5679 116.443 50.5833 116.439 50.5996C116.443 50.5833 116.449 50.567 116.453 50.5516Z" fill="#1E0342"/>
<path d="M116.52 50.1969C116.517 50.22 116.513 50.244 116.51 50.268C116.514 50.244 116.518 50.2209 116.52 50.1969Z" fill="#1E0342"/>
<path d="M166.117 17.6287C163.646 15.2355 160.487 13.3776 157.576 11.5293C154.555 9.61087 151.43 7.8443 148.18 6.30744C141.682 3.23564 134.696 1.32584 127.44 1.11151C125.636 1.05769 123.828 1.11728 122.022 1.2653C116.181 -0.184102 110.235 -0.320588 104.201 0.511759C95.4369 1.72087 84.0715 6.12193 79.4728 13.9792C75.6198 15.5584 71.7928 17.1981 67.9927 18.8839C65.6116 19.9393 63.2374 21.0129 60.8782 22.1153C61.1983 22.2662 61.4007 22.3652 61.4007 22.3652C62.0169 22.7035 62.4397 23.0034 62.7299 23.2648C63.5964 24.0491 63.2613 24.4797 63.2613 24.4797C63.1267 24.6085 63.1038 25.0131 63.0938 25.3178C67.8861 23.0409 72.7421 20.8572 77.656 18.7955C77.4117 20.1046 77.3399 21.4848 77.4686 22.938C78.7339 37.0466 95.1657 41.7206 107.437 42.7433C115.036 43.3767 122.724 43.0047 130.28 42.0955C132.708 41.8033 135.143 41.4976 137.577 41.1853C131.493 43.5132 125.341 45.5363 118.986 47.2107C117.757 47.5346 116.524 47.8517 115.292 48.166C115.687 48.5149 116.099 48.8984 116.452 49.2742C116.946 49.799 117.329 50.3094 117.398 50.6775C117.398 50.6775 117.463 51.0235 117.46 51.5848C124.286 49.8221 131.076 47.9402 137.619 45.3316C142.328 43.4545 147.265 41.7168 151.675 39.1851C153.965 38.7901 156.238 38.3095 158.47 37.6771C161.12 36.9255 163.945 35.923 166.095 34.2026C168.579 32.215 169.847 29.2719 169.99 26.2049C170.146 22.8909 168.479 19.9181 166.117 17.6287ZM91.1074 8.76795C96.2097 5.90568 102.079 4.4063 107.955 3.94495C104.184 4.99067 100.477 6.21709 96.8858 7.43197C94.005 8.40657 91.1443 9.43882 88.2995 10.5095C89.2049 9.88383 90.1501 9.30523 91.1074 8.76795ZM111.102 39.1169C104.432 38.8737 97.5309 37.9482 91.4863 35.0715C86.0539 32.485 81.6555 28.0446 81.3933 21.9509C81.3115 20.0594 81.7074 18.364 82.4413 16.8386C89.1071 14.1696 95.8667 11.7311 102.697 9.58972C108.927 7.63573 115.338 5.86434 121.832 5.24056C124.869 6.05561 127.84 7.16189 130.776 8.43252C134.074 9.85885 137.329 11.4361 140.457 13.1825C143.857 15.0817 147.021 17.3442 150.198 19.5644C152.726 21.3329 155.382 23.3705 156.328 26.3626C156.938 28.2974 156.281 30.2254 154.993 31.7555C153.73 33.2539 152.145 34.4717 150.412 35.5146C145.244 36.3959 140.007 36.8265 134.824 37.6175C126.971 38.8141 119.052 39.4062 111.102 39.1169ZM165.863 27.4131C165.143 30.9511 161.833 32.7359 158.283 33.8114C160.121 31.4182 161.062 28.5636 160.172 25.3399C159.3 22.1826 156.846 19.7182 154.267 17.744C151.294 15.4671 148.143 13.3391 144.962 11.3448C141.604 9.23891 138.01 7.3493 134.308 5.69903C134.428 5.72113 134.547 5.74132 134.666 5.76534C141.663 7.14939 148.084 10.2798 154.083 13.9273C157.035 15.7228 160.08 17.5806 162.703 19.8095C165.028 21.7847 166.48 24.373 165.863 27.4131Z" fill="#7C7C7C"/>
<path d="M116.073 51.4906C116.061 51.5127 116.05 51.5348 116.037 51.556C116.05 51.5348 116.062 51.5127 116.073 51.4906Z" fill="#1E0342"/>
<path d="M115.882 51.8232C115.868 51.8443 115.855 51.8655 115.841 51.8866C115.854 51.8655 115.868 51.8443 115.882 51.8232Z" fill="#1E0342"/>
<path d="M61.8015 48.0526L66.8879 53.3053L82.0384 53.2101C84.263 53.1697 86.4906 53.1534 88.7182 53.113C92.8803 53.0381 97.0433 53.1226 101.205 53.1409C103.741 53.1486 106.832 52.9564 109.148 54.1328C110.075 54.6066 111.218 55.2343 111.638 56.2262C111.801 56.0858 111.957 55.9493 112.11 55.8148C112.135 55.7927 112.161 55.7706 112.186 55.7475C112.338 55.612 112.486 55.4794 112.627 55.3496C112.634 55.3429 112.642 55.3361 112.647 55.3304C112.948 55.0545 113.219 54.7931 113.458 54.5499C113.411 54.5624 113.363 54.5701 113.316 54.572C113.304 54.574 113.292 54.574 113.278 54.574H110.493C109.724 54.574 109.101 53.3024 109.101 51.7348C109.101 50.1671 109.724 48.8946 110.493 48.8946H113.278C113.292 48.8946 113.304 48.8946 113.316 48.8965C114.068 48.9359 114.67 50.1931 114.67 51.7348C114.67 52.5546 114.498 53.2918 114.225 53.8108C114.334 53.707 114.457 53.5849 114.588 53.4494C114.595 53.4427 114.602 53.436 114.608 53.4283C114.673 53.361 114.741 53.2899 114.807 53.2168L114.808 53.2159C114.871 53.1467 114.937 53.0736 115.002 52.9996C115.014 52.9852 115.026 52.9708 115.039 52.9573C115.103 52.8814 115.169 52.8035 115.235 52.7238C115.244 52.7122 115.253 52.7017 115.261 52.6901C115.319 52.62 115.375 52.5479 115.431 52.4739C115.445 52.4546 115.46 52.4364 115.475 52.4152C115.537 52.3336 115.597 52.2499 115.657 52.1644C115.67 52.1461 115.682 52.1279 115.695 52.1086C115.746 52.0356 115.794 51.9616 115.84 51.8866C115.854 51.8655 115.867 51.8443 115.881 51.8232C115.935 51.7347 115.987 51.6463 116.036 51.556C116.049 51.5348 116.06 51.5127 116.072 51.4906C116.113 51.4128 116.152 51.3349 116.189 51.2561C116.199 51.2369 116.209 51.2167 116.218 51.1965C116.26 51.1042 116.298 51.012 116.333 50.9187C116.342 50.8957 116.35 50.8716 116.358 50.8476C116.388 50.765 116.414 50.6823 116.437 50.5996C116.441 50.5833 116.447 50.5679 116.451 50.5516C116.475 50.4574 116.493 50.3632 116.509 50.269C116.512 50.245 116.516 50.2219 116.519 50.1979C116.531 50.1095 116.539 50.021 116.541 49.9336C116.541 49.924 116.542 49.9144 116.542 49.9057C116.544 49.8115 116.537 49.7173 116.525 49.6241C116.522 49.601 116.519 49.5789 116.515 49.5559C116.5 49.4617 116.482 49.3675 116.453 49.2752C116.099 48.8994 115.688 48.5159 115.293 48.167C114.45 47.4221 113.678 46.8368 113.678 46.8368C112.037 45.4278 110.489 45.0423 110.489 45.0423C108.981 44.4455 94.4946 43.1643 94.4946 43.1643C85.5463 42.4396 68.3996 42.5674 68.3996 42.5674C60.9569 42.5674 57.9456 46.6667 57.9456 46.6667C57.9456 46.6667 60.0735 46.1948 61.8015 48.0526Z" fill="#DBBFEB"/>
<path d="M71.7051 73.8506C72.089 72.3829 72.9006 70.8662 74.1989 69.9647C76.2051 68.5653 78.4148 68.5326 80.4948 69.8109L81.8041 69.0958C81.8041 68.8392 81.6385 68.5499 81.6385 68.5499L66.8869 53.3052L61.8005 48.0526C60.0735 46.1947 57.9466 46.6667 57.9466 46.6667C50.86 46.8791 50.4581 53.9252 50.4581 53.9252C50.2377 55.5063 51.1232 56.5308 51.1232 56.5308L55.8646 62.0805L70.0857 77.7095C71.9464 79.8029 74.871 79.974 74.871 79.974C75.6946 80.0634 76.4504 79.9125 77.0806 79.6741C75.5889 79.6837 73.6295 79.133 72.6045 78.0575C71.5774 76.9791 71.3521 75.2039 71.7051 73.8506Z" fill="#B195C0"/>
<path d="M74.2917 75.1933C73.4421 73.2796 75.8632 71.4477 77.6171 71.4016C77.6171 71.4016 80.0541 70.1742 80.4958 69.8109C78.4148 68.5326 76.2052 68.5662 74.2 69.9647C72.9017 70.8662 72.09 72.3829 71.7061 73.8506C71.3531 75.2038 71.5785 76.9791 72.6045 78.0584C73.6296 79.1349 75.5889 79.6847 77.0807 79.6751C78.2443 79.2416 78.9922 78.5217 78.9922 78.5217C78.0259 78.0277 77.0587 77.5356 76.1374 76.9695C75.4055 76.5177 74.6427 75.9872 74.2917 75.1933Z" fill="#CCAEDB"/>
<path d="M8.02001 27.0219C8.02001 27.0219 11.6456 28.8798 16.3231 31.3134C18.9675 30.5397 21.7087 29.7631 24.4448 29.3662C28.4324 28.7924 32.6034 28.8077 36.6298 28.7385C40.9893 28.6645 45.3648 28.7183 49.7053 29.1259C51.8043 29.3229 53.9182 29.5997 55.9543 30.1379L55.9852 30.1764C56.3801 29.865 56.774 29.5507 57.1618 29.2364L56.419 29.2729C55.6522 29.3114 54.9612 28.0715 54.8784 26.5058C54.7957 24.9411 55.3511 23.6397 56.1189 23.6022L58.9009 23.4657C58.9138 23.4648 58.9258 23.4638 58.9398 23.4657C59.6926 23.4676 60.3607 24.694 60.4414 26.2328C60.4444 26.2915 60.4454 26.3491 60.4464 26.4058C60.6339 26.23 60.8124 26.0579 60.9819 25.8897C60.9829 25.8878 60.9859 25.8859 60.9869 25.8839C61.0716 25.8003 61.1534 25.7186 61.2322 25.6379L61.2332 25.6369C61.629 25.2313 61.9631 24.8546 62.2164 24.5211C62.2263 24.5076 62.2363 24.4951 62.2453 24.4826C62.2822 24.4317 62.3191 24.3817 62.353 24.3336C62.3659 24.3144 62.3769 24.2971 62.3888 24.2798C62.4177 24.2365 62.4457 24.1962 62.4706 24.1549C62.4836 24.1347 62.4956 24.1154 62.5065 24.0953C62.5285 24.0578 62.5494 24.0222 62.5693 23.9867C62.5813 23.9665 62.5913 23.9453 62.6012 23.9251C62.6192 23.8925 62.6331 23.8598 62.6481 23.8281C62.6571 23.8079 62.6661 23.7877 62.6731 23.7685C62.685 23.7387 62.695 23.7089 62.7049 23.6801C62.7099 23.6618 62.7169 23.6426 62.7219 23.6243C62.7299 23.5964 62.7349 23.5686 62.7399 23.5426C62.7439 23.5253 62.7478 23.509 62.7498 23.4936C62.7528 23.4657 62.7528 23.4388 62.7528 23.4129C62.7518 23.4004 62.7538 23.3869 62.7528 23.3744C62.7498 23.3369 62.7428 23.3014 62.7318 23.2687C62.4417 23.0072 62.0189 22.7074 61.4027 22.3691C61.4027 22.3691 61.2002 22.2701 60.8802 22.1192C59.8571 21.6376 57.6116 20.6246 56.751 20.5756C56.751 20.5756 20.203 18.0132 4.9179 25.3159L3.20285 28.1369C3.62962 27.737 5.56107 26.1204 8.02001 27.0219Z" fill="#DBBFEB"/>
<path d="M29.3298 48.5447C30.7467 43.2075 35.4303 43.5478 35.4303 43.5478L35.4402 43.5641C36.1223 43.1133 36.9479 42.7366 36.9479 42.7366L36.7275 42.4799C35.4971 41.3737 24.356 35.4924 16.3231 31.3144C11.6456 28.8798 8.02 27.0229 8.02 27.0229C5.56106 26.1213 3.62961 27.738 3.20284 28.1349L3.14995 28.2224C3.14995 28.2224 0.0907394 30.1821 0 34.7091C0 34.7091 0.0877918 37.2715 2.03919 38.5527L29.5931 54.0107C29.5931 54.0107 31.5414 54.6355 33.4719 53.9031C28.205 53.7012 29.3298 48.5447 29.3298 48.5447Z" fill="#B195C0"/>
<path d="M33.2196 51.2119C32.4558 50.9044 32.038 50.1489 31.8276 49.4156C31.5604 48.4986 31.9273 47.6807 32.6163 47.0358C32.8945 46.7744 33.2066 46.5514 33.5357 46.3466C33.7401 46.2207 33.9675 46.1419 34.1529 45.9824C34.5757 45.6239 34.5887 45.0299 34.5568 44.5301C34.5388 44.2456 34.9526 43.8842 35.4412 43.5641L35.4313 43.5478C35.4313 43.5478 30.7477 43.2076 29.3308 48.5448C29.3308 48.5448 28.206 53.7022 33.4719 53.9022C34.3035 53.5898 35.1301 53.0208 35.7982 52.0452C35.6436 52.025 35.4941 51.9808 35.3485 51.9376C34.6345 51.729 33.9046 51.4887 33.2196 51.2119Z" fill="#CCAEDB"/>
<path d="M111.884 51.7348C111.884 50.1671 111.26 48.8946 110.492 48.8946C109.723 48.8946 109.1 50.1671 109.1 51.7348C109.1 53.3024 109.723 54.574 110.492 54.574C111.26 54.574 111.884 53.3014 111.884 51.7348Z" fill="#B195C0"/>
<path d="M58.9388 23.4647C58.9248 23.4628 58.9128 23.4638 58.8999 23.4647L56.1178 23.6012C56.8866 23.5637 57.5767 24.8036 57.6584 26.3683C57.7422 27.934 57.1858 29.2344 56.418 29.2719L57.1609 29.2354C58.3674 28.257 59.5111 27.2833 60.4454 26.4039C60.4444 26.3462 60.4434 26.2895 60.4404 26.2309C60.3597 24.6931 59.6916 23.4667 58.9388 23.4647Z" fill="#CCAEDB"/>
<path d="M57.6585 26.3693C57.5767 24.8036 56.8866 23.5637 56.1178 23.6022C55.349 23.6406 54.7947 24.9411 54.8774 26.5058C54.9602 28.0715 55.6502 29.3114 56.418 29.2729C57.1868 29.2345 57.7422 27.9341 57.6585 26.3693Z" fill="#B195C0"/>
<path d="M62.7318 23.2657C62.7428 23.2984 62.7498 23.334 62.7528 23.3715C62.7538 23.384 62.7518 23.3965 62.7528 23.4099C62.7528 23.4359 62.7528 23.4628 62.7498 23.4906C62.7478 23.507 62.7438 23.5233 62.7399 23.5397C62.7349 23.5656 62.7299 23.5935 62.7219 23.6214C62.7169 23.6396 62.7099 23.6588 62.7049 23.6771C62.6949 23.7059 62.684 23.7357 62.673 23.7655C62.6651 23.7848 62.6561 23.8049 62.6481 23.8251C62.6331 23.8568 62.6192 23.8895 62.6012 23.9222C62.5912 23.9424 62.5803 23.9626 62.5693 23.9837C62.5494 24.0193 62.5294 24.0548 62.5065 24.0923C62.4945 24.1125 62.4836 24.1327 62.4706 24.1519C62.4457 24.1932 62.4177 24.2346 62.3888 24.2769C62.3768 24.2942 62.3659 24.3124 62.353 24.3307C62.3191 24.3787 62.2821 24.4297 62.2452 24.4797C62.2353 24.4922 62.2253 24.5047 62.2163 24.5181C61.9631 24.8526 61.629 25.2284 61.2331 25.634L61.2322 25.635C61.1534 25.7167 61.0716 25.7984 60.9868 25.882C60.9858 25.8839 60.9829 25.8858 60.9819 25.8877C60.8124 26.0559 60.6329 26.228 60.4464 26.4039C59.5111 27.2833 58.3684 28.2569 57.1618 29.2354C56.7739 29.5487 56.3811 29.863 55.9852 30.1754C52.2858 33.0963 48.4439 35.7865 48.4439 35.7865C43.9258 38.9554 36.9479 42.7346 36.9479 42.7346C36.9479 42.7346 36.1222 43.1114 35.4402 43.5621C34.9516 43.8822 34.5378 44.2436 34.5558 44.5281C34.5867 45.0279 34.5747 45.6219 34.1519 45.9804C33.9654 46.1389 33.7391 46.2187 33.5347 46.3446C33.2057 46.5494 32.8935 46.7723 32.6153 47.0338C31.9263 47.6787 31.5594 48.4966 31.8266 49.4136C32.038 50.1469 32.4558 50.9024 33.2186 51.2099C33.9046 51.4867 34.6346 51.728 35.3475 51.9346C35.4941 51.9779 35.6427 52.0221 35.7972 52.0423C35.7972 52.0423 40.0051 52.2835 45.2221 49.1723C45.2221 49.1723 52.9858 45.0394 57.6803 40.3433C57.6803 40.3433 63.2633 35.2185 63.5285 32.9137C63.5874 32.4196 63.4598 31.8478 63.4029 31.3585C63.2813 30.2542 62.9772 29.1912 62.9921 28.0705C63.0001 27.2487 63.013 26.426 63.0848 25.6061C63.0898 25.5408 63.0918 25.436 63.0958 25.3168C63.1058 25.0121 63.1287 24.6075 63.2633 24.4787C63.2633 24.4806 63.5983 24.05 62.7318 23.2657Z" fill="#DCC0EC"/>
<path d="M114.67 51.7348C114.67 50.1931 114.067 48.9359 113.316 48.8965C113.304 48.8946 113.292 48.8946 113.278 48.8946H110.493C111.261 48.8946 111.885 50.1671 111.885 51.7348C111.885 53.3024 111.261 54.574 110.493 54.574H113.278C113.292 54.574 113.304 54.574 113.316 54.572C113.363 54.5692 113.411 54.5615 113.458 54.5499C113.568 54.4384 113.673 54.3298 113.767 54.226C113.767 54.226 113.952 54.0723 114.225 53.8108C114.498 53.2918 114.67 52.5546 114.67 51.7348Z" fill="#CCAEDB"/>
<path d="M116.455 49.2752C116.483 49.3675 116.502 49.4617 116.517 49.5559C116.521 49.578 116.524 49.601 116.527 49.6241C116.539 49.7173 116.545 49.8115 116.544 49.9057C116.544 49.9153 116.543 49.9249 116.543 49.9336C116.541 50.021 116.533 50.1095 116.521 50.1979C116.518 50.221 116.514 50.245 116.511 50.269C116.495 50.3632 116.477 50.4574 116.453 50.5516C116.449 50.5679 116.443 50.5833 116.439 50.5996C116.416 50.6823 116.39 50.765 116.36 50.8476C116.351 50.8716 116.343 50.8947 116.335 50.9187C116.3 51.012 116.262 51.1042 116.22 51.1965C116.21 51.2167 116.2 51.2369 116.191 51.2561C116.154 51.3349 116.115 51.4137 116.074 51.4906C116.062 51.5127 116.051 51.5348 116.038 51.556C115.989 51.6463 115.936 51.7348 115.883 51.8232C115.869 51.8443 115.856 51.8655 115.842 51.8866C115.795 51.9616 115.747 52.0356 115.697 52.1086C115.684 52.1269 115.672 52.1461 115.659 52.1644C115.599 52.249 115.539 52.3336 115.477 52.4152C115.462 52.4354 115.447 52.4546 115.434 52.4739C115.377 52.5469 115.321 52.619 115.263 52.6901C115.254 52.7017 115.245 52.7122 115.237 52.7238C115.171 52.8035 115.105 52.8814 115.041 52.9573C115.028 52.9717 115.016 52.9852 115.004 52.9996C114.939 53.0746 114.873 53.1467 114.81 53.2159L114.809 53.2168C114.743 53.2908 114.675 53.361 114.61 53.4283C114.604 53.435 114.597 53.4417 114.59 53.4494C114.459 53.5849 114.336 53.7061 114.227 53.8108C113.955 54.0723 113.769 54.226 113.769 54.226C113.674 54.3298 113.57 54.4384 113.46 54.5499C113.222 54.7931 112.95 55.0545 112.65 55.3304C112.644 55.3361 112.636 55.3429 112.629 55.3496C112.487 55.4794 112.34 55.612 112.188 55.7475C112.163 55.7696 112.137 55.7917 112.112 55.8148C111.96 55.9493 111.803 56.0868 111.64 56.2262C106.7 60.4898 97.2437 67.0774 97.2437 67.0774C95.2495 68.1895 81.8061 69.0968 81.8061 69.0968L80.4969 69.8119C80.0561 70.1752 77.6181 71.4026 77.6181 71.4026C75.8641 71.4487 73.4421 73.2806 74.2927 75.1943C74.6447 75.9882 75.4064 76.5187 76.1383 76.9704C77.0607 77.5365 78.028 78.0287 78.9932 78.5227C81.9168 79.504 88.6046 78.9071 88.6046 78.9071C96.5368 78.4794 105.84 70.624 105.84 70.624C107.7 69.215 116.648 61.1443 116.648 61.1443C117.357 60.5878 117.003 57.4295 117.003 57.4295C116.824 56.2761 117.092 53.8425 117.092 53.8425C117.383 52.9573 117.459 52.1596 117.464 51.5877C117.468 51.0274 117.402 50.6804 117.402 50.6804C117.332 50.3103 116.949 49.8 116.455 49.2752Z" fill="#DCC0EC"/>
</svg>
