<svg width="91" height="80" viewBox="0 0 91 80" fill="none" xmlns="http://www.w3.org/2000/svg">
<path d="M11.4882 43.1531C15.5591 43.1531 19.6292 43.1531 23.7 43.1531C23.9082 38.2668 25.6397 31.9396 31.2955 31.805C36.9173 31.6704 38.5078 38.4988 38.8443 43.1531C40.3145 43.1531 41.7862 43.1531 43.2572 43.1531C43.7298 43.1531 44.3402 43.4254 44.5389 43.8894C44.8896 44.7088 45.2419 45.5282 45.5934 46.3476C47.5069 38.1108 49.4205 29.8733 51.334 21.6365C51.6562 20.2495 53.9212 20.183 54.1967 21.6365C55.7865 30.0015 57.3769 38.3673 58.9659 46.7323C59.5391 45.681 60.1115 44.6312 60.6846 43.5814C60.9332 43.127 61.4558 42.8467 61.9664 42.8467C68.1139 42.8467 74.2598 42.8467 80.4072 42.8467C85.6712 37.2059 90.4285 30.9128 90.6208 23.1534C90.4055 10.1238 79.7739 -0.220477 66.7276 0.00357182C56.6082 0.186452 48.6462 7.32513 45.6322 16.3425C43.3062 9.33919 37.903 3.68098 30.4769 1.23544C19.8294 -2.25829 8.03882 3.51236 2.80179 13.0483C0.0680787 18.0296 -0.106905 23.7036 1.56356 29.0523C3.31003 34.6187 7.41338 38.9516 11.3188 43.1697C11.375 43.1642 11.428 43.1531 11.4882 43.1531Z" fill="#B195C0"/>
<path d="M43.0054 46.1441C43.0228 46.1473 43.0213 46.1457 43.0054 46.1441Z" fill="#FC7538"/>
<path d="M66.6476 45.8163C65.4007 45.8163 64.1531 45.8163 62.9061 45.8163C62.884 45.8163 62.8689 45.8148 62.8484 45.8148C61.755 47.8201 60.6609 49.8239 59.5676 51.8284C58.9809 52.9043 57.0975 52.75 56.8544 51.4745C55.4436 44.0509 54.0329 36.6288 52.6213 29.2059C50.897 36.6288 49.1719 44.0509 47.4491 51.4745C47.1784 52.6391 45.2514 53.0318 44.7352 51.8284C43.9206 49.9268 43.1044 48.0244 42.2897 46.1227C41.6405 46.1227 40.9913 46.1227 40.3421 46.1227C39.3707 46.1227 38.4001 46.1227 37.4287 46.1227C36.6062 46.1227 35.9617 45.4466 35.9443 44.6383C35.8921 42.1769 35.5009 34.473 31.2939 34.7746C27.0805 35.0763 26.5818 41.3758 26.6443 44.6383C26.6593 45.4466 25.9571 46.1227 25.1599 46.1227C21.4437 46.1227 17.7259 46.1227 14.0105 46.1227C24.137 57.318 34.1163 68.7366 44.5856 79.6223C45.0646 80.1187 45.9592 80.133 46.4318 79.6223C55.4888 69.7959 64.3058 59.7572 73.4586 50.0376C74.7593 48.6553 76.1503 47.2525 77.5579 45.8163C73.9209 45.8163 70.2839 45.8163 66.6476 45.8163Z" fill="#CCAEDB"/>
</svg>
