<svg width="95" height="80" viewBox="0 0 95 80" fill="none" xmlns="http://www.w3.org/2000/svg">
<path d="M91.6184 2.88916C91.6184 2.88916 88.9001 -0.275122 83.9 0.0193478C83.9 0.0193478 79.7826 0.383601 76.9128 4.57852L70.1476 15.6075L44.6122 56.978C44.6122 56.978 44.5475 57.126 44.4411 57.3958C45.6292 55.2375 47.2352 53.3073 49.2122 51.8316C53.9714 48.2724 60.5357 47.6613 66.0361 49.7251C71.8302 51.9081 77.8004 56.6018 79.06 62.978C79.3953 64.7133 79.5825 66.5065 79.254 68.4546C84.4311 48.4962 84.4362 48.4715 84.9077 46.4894L94.0261 11.0015C94.0261 11.0015 95.0005 5.90109 91.6184 2.88916Z" fill="#B195C0"/>
<path d="M79.0592 62.9788C77.8004 56.6026 71.8293 51.9081 66.0352 49.726C60.5348 47.6613 53.9705 48.2732 49.2113 51.8324C47.2343 53.3081 45.6283 55.2384 44.4402 57.3967C44.4402 57.4026 44.4343 57.4085 44.4343 57.4137C43.6998 59.3898 41.276 67.7252 49.5117 74.3321C49.5117 74.3321 55.3415 78.4436 60.4701 79.6844L62.059 79.9193C62.059 79.9193 74.9995 81.59 78.923 69.7252C79.0344 69.2954 79.146 68.8716 79.2523 68.4546C79.5826 66.5073 79.3945 64.7141 79.0592 62.9788Z" fill="#CCAEDB"/>
<path d="M44.4351 57.4137C44.4351 57.4077 44.4411 57.4018 44.4411 57.3967C44.5475 57.1269 44.6122 56.9788 44.6122 56.9788L70.1476 15.6084L55.2948 14.2382L0 70.6087L60.471 79.6853C55.3425 78.4444 49.5126 74.3329 49.5126 74.3329C41.2768 67.7252 43.7007 59.3899 44.4351 57.4137Z" fill="#CCAEDB"/>
<path d="M79.4728 65.0427C79.3664 62.9278 78.6429 61.041 77.7536 59.309C77.6404 59.0929 77.5468 58.8682 77.42 58.6622L77.0395 58.0503C76.7783 57.6469 76.5536 57.2256 76.2498 56.8639C75.963 56.4877 75.6778 56.1175 75.3944 55.749C75.0795 55.4077 74.7672 55.069 74.4566 54.7337C74.1587 54.3847 73.8004 54.103 73.4719 53.7966C73.1349 53.4979 72.8165 53.1864 72.4497 52.9328C72.0931 52.6681 71.7408 52.4043 71.391 52.1439C71.0251 51.9166 70.6617 51.6928 70.3025 51.4698C68.831 50.6026 67.3612 49.8843 65.8582 49.3651C65.482 49.2409 65.1135 49.0971 64.7425 48.9924C64.3672 48.9107 63.9978 48.8289 63.6293 48.7472C63.4421 48.7081 63.2735 48.6647 63.0735 48.629C62.8871 48.6077 62.7024 48.5864 62.5203 48.566C62.1527 48.5302 61.7909 48.4698 61.4301 48.4562C59.9918 48.3498 58.6029 48.3873 57.3127 48.5005C54.6956 48.7711 52.4913 49.6826 50.7509 50.7056C49.0045 51.7354 47.7185 52.9098 46.7883 53.9439C45.8598 54.9856 45.2998 55.9013 44.9415 56.5226C44.6181 57.1643 44.4504 57.4954 44.4504 57.4954C44.4504 57.4954 44.6215 57.166 44.9543 56.5286C45.3194 55.9124 45.8896 55.0052 46.8266 53.9771C47.7662 52.9592 49.0615 51.8043 50.8088 50.8026C52.5475 49.8077 54.7518 48.9328 57.3263 48.697C59.9067 48.526 62.8284 48.5558 65.7654 49.6503C67.2174 50.1686 68.688 50.9081 70.1135 51.7745C70.4693 52.0009 70.8293 52.2281 71.1927 52.4596C71.5297 52.7183 71.8693 52.9771 72.2115 53.2409C72.5638 53.4877 72.8744 53.7992 73.1996 54.0954C73.5179 54.3983 73.8659 54.6783 74.1519 55.0247C74.4523 55.3575 74.7536 55.6911 75.0583 56.029C75.3289 56.3924 75.6038 56.7583 75.8796 57.1277C76.1723 57.4852 76.3868 57.8997 76.6361 58.2945L77.0013 58.8962C77.1221 59.0971 77.2106 59.3184 77.317 59.5286C78.1596 61.2027 78.8498 63.1167 78.9119 65.069C78.9587 65.5618 78.8975 66.0563 78.8779 66.555C78.7936 67.0452 78.7485 67.5482 78.597 68.0308C78.4889 68.5252 78.2923 68.9958 78.1162 69.475C77.8915 69.9346 77.6872 70.4095 77.4029 70.8435C76.8719 71.7329 76.214 72.5661 75.448 73.3082C74.6906 74.0555 73.8489 74.7414 72.9229 75.3218C72.4753 75.6291 71.9765 75.8861 71.5051 76.1474C70.9995 76.39 70.4948 76.6682 69.9825 76.87C68.974 77.3363 67.8855 77.6682 66.791 77.9474C64.5722 78.4512 62.2471 78.3993 59.9986 77.5993C58.8965 77.2538 57.7943 76.7363 56.716 76.2189C55.6181 75.6742 54.5612 75.1014 53.5186 74.4486C51.4514 73.1533 49.4854 71.5857 48.0377 69.5729C47.3203 68.5695 46.7356 67.4614 46.3662 66.2733C45.9952 65.0963 45.8224 63.8026 45.8019 62.5643C45.7781 61.9362 45.8462 61.2886 45.9118 60.6929C46.0292 60.0231 46.1534 59.4401 46.3849 58.8597C46.5892 58.2673 46.905 57.7209 47.2394 57.1865C47.6054 56.6673 47.9977 56.1601 48.4513 55.6928L48.7773 55.3498L49.1424 55.0035C49.3866 54.7771 49.6266 54.5243 49.8785 54.332C50.1288 54.1286 50.3722 53.9175 50.6292 53.7183L51.43 53.1524C52.5262 52.4392 53.7194 51.8775 54.9841 51.5226C56.2437 51.1438 57.5748 51.0638 58.9424 51.0553L59.9365 51.0817C60.2701 51.0996 60.6055 51.1498 60.9408 51.1822C61.6157 51.229 62.2735 51.4009 62.9408 51.5166C64.248 51.8596 65.5621 52.2511 66.7723 52.8834L67.2344 53.103L67.6752 53.3617L68.5544 53.8792C69.1502 54.269 69.7051 54.6545 70.2676 55.0707C71.374 55.9064 72.437 56.8128 73.3714 57.8316C74.3093 58.8435 75.1264 59.9703 75.6889 61.206C76.2608 62.4452 76.4881 63.7839 76.4319 65.161C76.3757 66.5193 76.1255 67.949 75.477 69.0452L74.8923 69.9593L74.2659 70.7763C73.8191 71.3014 73.3493 71.8299 72.8208 72.2852C71.78 73.2163 70.5936 73.9865 69.3076 74.5355L68.3255 74.9048L67.2872 75.2061C66.9331 75.3125 66.5961 75.3636 66.2505 75.447C65.9093 75.5338 65.5603 75.5866 65.2114 75.624C64.5135 75.75 63.8165 75.7321 63.1561 75.7142C62.402 75.6317 61.7467 75.521 61.0548 75.3389C59.6744 74.9874 58.3263 74.4657 57.048 73.8146C55.785 73.1712 54.5347 72.3303 53.396 71.4937C52.8343 71.0435 52.2641 70.6018 51.7603 70.0912L51.3679 69.7218L51.2709 69.6299C51.2616 69.6231 51.2147 69.5703 51.1883 69.5414L51.0002 69.3363C50.7356 69.0606 50.5441 68.7976 50.3219 68.5261C49.8981 67.961 49.5254 67.3576 49.196 66.7329C48.8785 66.1014 48.6156 65.4444 48.407 64.7729C48.2156 64.0954 48.0837 63.406 48.0207 62.7107C47.9747 62.0145 48.002 61.3184 48.1049 60.635C48.3347 59.2928 48.973 57.9431 49.8267 56.9294C50.7118 55.8733 51.8879 55.0656 53.1841 54.5166C54.4812 53.9651 55.8922 53.6536 57.3178 53.5285C58.745 53.4043 60.1935 53.463 61.6088 53.6954L62.6624 53.9047L63.6804 54.1805C64.0259 54.3022 64.3927 54.412 64.7212 54.5447C65.048 54.6843 65.3757 54.7983 65.7008 54.9549C68.2991 56.1524 70.7493 57.8528 72.4251 60.1132C73.2514 61.2392 73.8583 62.5209 74.031 63.8665L74.0829 64.8758L74.0293 65.3797L74.0038 65.6308L73.9919 65.7567C73.991 65.778 73.9748 65.8852 73.9876 65.8375C73.888 66.1865 73.7978 66.549 73.6898 66.8861L73.2761 67.7644C72.6174 68.9644 71.6463 70.0112 70.5569 70.8682C70.2872 71.0861 69.9893 71.2682 69.7093 71.4699C69.4216 71.6631 69.111 71.8086 68.814 71.9831C68.534 72.1278 68.1637 72.2836 67.8463 72.4231C67.522 72.5363 67.2123 72.6716 66.8778 72.7686C65.5518 73.1848 64.1646 73.3908 62.8046 73.2963C62.465 73.2802 62.1331 73.2078 61.796 73.1687L60.7842 72.9057C60.4242 72.8265 60.1135 72.698 59.7969 72.5754C59.482 72.4452 59.1612 72.3525 58.8497 72.1959C58.2224 71.8938 57.5918 71.6019 57.0012 71.2308L56.5509 70.9678C56.5297 70.9542 56.4429 70.9065 56.4727 70.921L56.3654 70.841L56.1518 70.6801C55.8778 70.4623 55.5629 70.2597 55.3203 70.0274C54.3578 69.1567 53.4446 68.0299 52.5901 66.9491C51.7696 65.8699 51.0828 64.6733 50.8062 63.412C50.6692 62.7848 50.6454 62.1465 50.7662 61.5397C50.8811 60.9371 51.1603 60.3482 51.5126 59.8631C53.0624 57.6673 55.6063 56.4792 58.2173 56.2128C59.5237 56.0733 60.8523 56.1388 62.1399 56.3754L63.099 56.5831C63.4114 56.675 63.728 56.7584 64.0386 56.8562C64.3373 56.9686 64.6693 57.0715 64.9391 57.1898C65.248 57.3252 65.5595 57.4596 65.8182 57.6145C66.9237 58.2154 67.9561 59.0367 68.8012 59.9814C69.6472 60.9243 70.3468 62.0009 70.7331 63.1669C71.1059 64.332 71.1255 65.5771 70.6982 66.6861L70.2838 67.5158L69.7748 68.2154C69.5774 68.4367 69.357 68.6495 69.151 68.8673C68.9272 69.0699 68.6795 69.2478 68.4471 69.4401C67.4625 70.1482 66.3272 70.6512 65.1587 70.9014L64.9408 70.9542C64.9152 70.9635 64.7995 70.9729 64.7331 70.9822L64.2659 71.0376C63.9467 71.0886 63.6548 71.0878 63.3655 71.0827L62.9289 71.0844C62.7816 71.0751 62.6327 71.0529 62.4855 71.0376C62.1893 71.0044 61.8922 70.9839 61.6029 70.9065C60.4369 70.6742 59.3127 70.2384 58.2769 69.6546C58.0139 69.515 57.7654 69.3491 57.5109 69.1984L57.3203 69.0835C57.2939 69.0733 57.2088 69.0018 57.1552 68.9644L56.7901 68.6937C56.5314 68.5193 56.3475 68.3167 56.1365 68.1252C55.9237 67.9439 55.7313 67.7243 55.5415 67.5048C54.7815 66.6341 54.1424 65.6554 53.7347 64.6069L53.493 63.8086C53.4233 63.5414 53.4165 63.2707 53.3722 63.0018L53.3577 62.9022C53.3509 62.8648 53.3509 62.8758 53.3526 62.8188L53.3603 62.6001C53.3645 62.4554 53.3611 62.3005 53.3901 62.1856C53.4139 62.0613 53.4216 61.9362 53.4565 61.8111L53.5679 61.4341C53.9339 60.4435 54.7765 59.6971 55.7458 59.2452C56.7271 58.8026 57.8088 58.5932 58.8871 58.6017C61.0633 58.6035 63.2378 58.9669 65.128 59.812C66.065 60.2401 66.9246 60.8231 67.5238 61.5942C68.1229 62.3567 68.4208 63.3252 68.4003 64.2767C68.3731 66.1916 67.1987 68.058 65.4914 68.7108C65.0582 68.8793 64.6463 68.9431 64.1586 68.9789C63.9263 68.9942 63.711 68.9822 63.4855 68.9822C63.2591 68.9584 63.0318 68.9482 62.808 68.9116C61.911 68.7763 61.0488 68.4903 60.2505 68.1065C58.6641 67.3346 57.288 66.1763 56.4914 64.7388L56.4165 64.6044L56.3841 64.5473L56.3543 64.475L56.2326 64.1848C56.1611 63.9916 56.1178 63.8154 56.0854 63.6239C56.0165 63.2401 56.0684 62.852 56.1943 62.4971C56.3177 62.1388 56.5501 61.8256 56.8224 61.5626C57.0913 61.2945 57.4131 61.0809 57.7518 60.9107C59.1127 60.2128 60.7007 60.2495 62.0437 60.6035C63.3978 60.9933 64.5629 61.8095 65.265 62.869C65.6574 63.3754 65.6336 64.0273 65.6131 64.6256C65.5689 65.2231 65.4727 65.8248 65.2208 66.3176C64.9612 66.8282 64.425 67.0614 63.9008 67.1141C63.3714 67.1652 62.8548 67.0622 62.3739 66.9235C61.4258 66.6239 60.6088 66.1286 59.9978 65.544C59.3969 64.9652 58.9492 64.2375 59.0667 63.5431C59.1203 63.2044 59.2982 62.9099 59.5493 62.7464C59.6165 62.7116 59.682 62.6775 59.7467 62.6435C59.8173 62.6316 59.8888 62.6214 59.9578 62.6095C60.0965 62.5712 60.2318 62.6146 60.3637 62.6231C60.8778 62.7448 61.2488 63.0265 61.5314 63.2401C61.8148 63.4597 62.0157 63.6444 62.151 63.7661C62.2863 63.8886 62.3544 63.9516 62.3544 63.9516C62.3544 63.9516 62.2863 63.8886 62.1535 63.7626C62.0191 63.6401 61.8199 63.4529 61.5391 63.2299C61.2557 63.012 60.8931 62.7244 60.3671 62.5941C60.2369 62.5839 60.0973 62.5388 59.9535 62.5763C59.8812 62.5873 59.808 62.5976 59.7331 62.6095C59.6659 62.6427 59.5969 62.6775 59.5271 62.7124C59.2633 62.8784 59.0726 63.1848 59.0139 63.5337C58.8854 64.2605 59.3382 65.0044 59.9399 65.6001C60.5578 66.2035 61.3705 66.7133 62.3433 67.0333C62.8258 67.1789 63.3561 67.2929 63.9118 67.2469C64.185 67.212 64.4735 67.1618 64.7289 67.012C64.9901 66.8546 65.2105 66.6776 65.3527 66.3933C65.6318 65.858 65.7306 65.2537 65.7859 64.6367C65.8106 64.326 65.8097 64.0128 65.7731 63.686C65.7391 63.5252 65.7348 63.3422 65.665 63.201C65.631 63.1218 65.6182 63.0605 65.5689 62.9669L65.4284 62.7635C64.7101 61.6494 63.5093 60.789 62.111 60.3686C61.7518 60.298 61.4037 60.1635 61.0224 60.1448C60.8343 60.1252 60.6454 60.1048 60.4548 60.0852C60.2675 60.0809 60.082 60.092 59.8939 60.0937C59.1229 60.1056 58.3407 60.2878 57.6148 60.6435C57.2514 60.8197 56.9024 61.0452 56.602 61.3371C56.3007 61.6222 56.0318 61.9712 55.8828 62.3814C55.5484 63.1941 55.7493 64.1763 56.1714 64.9107C57.0003 66.4478 58.4182 67.6631 60.0624 68.4895C60.8897 68.8997 61.7867 69.2112 62.7365 69.367C62.9731 69.4078 63.2157 69.4222 63.4565 69.4503C63.7016 69.4537 63.9595 69.4665 64.1995 69.4538C64.6565 69.4291 65.1986 69.355 65.665 69.1721C67.5986 68.4486 68.9008 66.4205 68.9638 64.2929C69.0004 63.2214 68.6752 62.1141 67.9927 61.2333C67.3169 60.3524 66.3782 59.7192 65.3859 59.2563C63.3808 58.3456 61.1527 57.9635 58.8829 57.9447C57.7331 57.9277 56.5501 58.1413 55.4556 58.6281C54.3739 59.1192 53.3543 59.9865 52.9015 61.1907C52.8028 61.4903 52.7126 61.795 52.676 62.1269C52.642 62.2963 52.6462 62.4341 52.6394 62.5814L52.6326 62.7992C52.6301 62.8145 52.6292 62.8988 52.6361 62.9345L52.6497 63.0503C52.6948 63.3576 52.7067 63.6775 52.7833 63.978L53.0471 64.8682C53.4879 66.0231 54.162 67.069 54.9713 68.0078C55.1713 68.2427 55.3756 68.4776 55.619 68.692C55.853 68.9065 56.0846 69.1474 56.3288 69.3125L56.6914 69.5865C56.762 69.6367 56.7901 69.6682 56.8956 69.7337L57.0939 69.8554C57.3612 70.0163 57.6199 70.1908 57.8948 70.3388C58.9799 70.9593 60.1782 71.4376 61.4412 71.6989C61.7535 71.784 62.0769 71.8095 62.3995 71.8495C62.5612 71.8665 62.7212 71.8903 62.8846 71.9014L63.385 71.9048C63.722 71.9099 64.0557 71.9082 64.3595 71.8606L64.8267 71.8078C64.9161 71.795 64.9578 71.7968 65.0871 71.7738L65.328 71.7185C66.6216 71.4495 67.8557 70.9116 68.9485 70.138C69.2097 69.9278 69.4838 69.7312 69.734 69.5065C69.9706 69.264 70.2149 69.0308 70.4446 68.7755C70.654 68.492 70.8718 68.2035 71.0667 67.915L71.2872 67.4844L71.397 67.269L71.4523 67.1609C71.4753 67.1082 71.4761 67.1269 71.5195 67.0155C72.0404 65.7074 72.0174 64.2154 71.5995 62.8945C71.1698 61.5677 70.4072 60.3907 69.4983 59.3618C68.5817 58.3286 67.5084 57.4537 66.2642 56.766C63.7944 55.4639 60.9399 54.9481 58.111 55.223C56.6999 55.372 55.288 55.7507 53.9969 56.4222C53.3467 56.7473 52.7424 57.1686 52.1841 57.6409C51.8922 57.8571 51.6454 58.1618 51.3764 58.4213C51.1109 58.692 50.9339 58.9677 50.7084 59.2409C50.2394 59.8767 49.9135 60.5754 49.7603 61.3448C49.6062 62.1065 49.6385 62.8929 49.7985 63.6333C50.1271 65.1201 50.8854 66.4189 51.7637 67.5848C52.6616 68.715 53.522 69.8171 54.6743 70.858C54.9492 71.115 55.2403 71.2997 55.5211 71.5252L55.7348 71.6861L55.8412 71.767C55.9407 71.841 55.9365 71.8274 55.9901 71.8614L56.4641 72.1397C57.0854 72.5312 57.7518 72.8444 58.4156 73.1644C58.7433 73.3304 59.1135 73.4436 59.4633 73.5848C59.8173 73.7219 60.1722 73.8614 60.5161 73.9372L61.5935 74.2172C61.9705 74.2665 62.3467 74.3448 62.7263 74.3644C64.2471 74.4742 65.768 74.247 67.2055 73.7984C67.5672 73.6946 67.9255 73.5414 68.2846 73.4146C68.631 73.2623 68.9331 73.1397 69.2999 72.9551C69.6318 72.7644 69.98 72.5984 70.2965 72.3865C70.6055 72.1669 70.9314 71.9669 71.2284 71.7286C72.4216 70.7925 73.4838 69.6622 74.2395 68.3005C74.42 67.9414 74.5842 67.5635 74.7502 67.1925C74.8642 66.8359 74.951 66.4878 75.054 66.1346C75.0846 65.9958 75.0719 66.0111 75.0821 65.9422L75.0991 65.7958L75.1298 65.5005L75.1894 64.9133C75.1809 64.5192 75.1536 64.1243 75.1332 63.7303C74.934 62.155 74.2362 60.7005 73.3323 59.4605C72.4225 58.2145 71.3016 57.1549 70.0872 56.2434C68.8718 55.3319 67.5587 54.5583 66.174 53.9268C65.8327 53.7609 65.4616 53.6273 65.1067 53.4784C64.7493 53.3354 64.4046 53.2324 64.0531 53.1056L62.9237 52.7941L61.7969 52.5668C60.2871 52.3158 58.7484 52.2494 57.2173 52.3779C55.6897 52.5098 54.1629 52.8383 52.7254 53.4452C51.293 54.0494 49.9458 54.9549 48.9254 56.1762L48.545 56.635C48.4284 56.8018 48.3253 56.9814 48.2164 57.155L47.8956 57.6801C47.7935 57.8563 47.739 58.0213 47.659 58.1933L47.4369 58.7022L47.3815 58.8307C47.3654 58.8622 47.3211 58.9941 47.3194 59.0069L47.2317 59.2911C47.1024 59.6673 47.0368 60.0588 46.9551 60.4461C46.8368 61.2282 46.8088 62.0188 46.8632 62.8018C46.9356 63.5839 47.0845 64.3525 47.3007 65.1005C47.5313 65.8435 47.8215 66.5652 48.1713 67.2563C48.5339 67.9405 48.9432 68.5976 49.4105 69.2163C49.6539 69.5184 49.9084 69.8486 50.1569 70.1065L50.3458 70.3099L50.4522 70.4248L50.5568 70.5235L50.973 70.915C51.5126 71.4563 52.1135 71.9219 52.7075 72.3942C53.9543 73.3014 55.1663 74.1151 56.5348 74.8129C57.888 75.498 59.3067 76.0444 60.7816 76.4172C61.5144 76.6112 62.3144 76.7398 63.0225 76.8138C63.8276 76.8461 64.6088 76.8504 65.3595 76.7168C65.7391 76.6734 66.1178 76.6163 66.4872 76.5219C66.8548 76.4342 67.2438 76.3661 67.591 76.2606L68.6625 75.9474L69.734 75.5423C72.534 74.344 74.8889 72.1669 76.3851 69.6205C76.791 68.9099 77.0676 68.1822 77.2191 67.435C77.4021 66.6929 77.4634 65.9414 77.4974 65.1907C77.5579 63.6962 77.2906 62.1303 76.6506 60.7711C76.0234 59.3984 75.1357 58.1933 74.1408 57.1218C73.1476 56.0452 72.0379 55.1056 70.8898 54.2417C70.3144 53.8154 69.7093 53.3975 69.1263 53.0179L68.185 52.4656L67.7152 52.1924L67.225 51.9609C65.9391 51.2945 64.5518 50.8817 63.1697 50.5243C62.4658 50.4 61.7714 50.2247 61.0591 50.1753C60.7042 50.1413 60.3543 50.0894 59.996 50.0724L58.9169 50.046C58.5518 50.0264 58.2114 50.0545 57.8675 50.0741C57.5126 50.1005 57.2063 50.1005 56.8131 50.149L55.7552 50.309C55.4046 50.3737 55.0616 50.4766 54.716 50.56C53.3475 50.9473 52.0522 51.5575 50.8845 52.3294L50.0334 52.9387C49.7577 53.1549 49.493 53.3873 49.2233 53.6102C48.9441 53.8332 48.722 54.0724 48.4743 54.3039L48.1117 54.6528L47.7475 55.0392C47.2726 55.5362 46.8471 56.0894 46.4513 56.6631C46.0828 57.2554 45.7364 57.8707 45.5109 58.5328C45.379 58.8537 45.2921 59.1992 45.2019 59.5422C45.1032 59.8895 45.076 60.1975 45.0087 60.5261C44.9287 61.235 44.8709 61.8954 44.8981 62.5771C44.9355 63.9473 45.1202 65.2537 45.5296 66.5397C45.9356 67.818 46.5747 69.0061 47.3458 70.069C48.9033 72.201 50.9662 73.812 53.0964 75.1286C54.1603 75.7857 55.2752 76.3789 56.3679 76.9108C57.4922 77.4401 58.5918 77.9517 59.7875 78.3185C60.082 78.4283 60.3714 78.4963 60.6607 78.5721C60.9603 78.6419 61.2139 78.7363 61.551 78.7849C62.1603 78.8717 62.7629 79.0019 63.3748 78.9883C64.5952 79.0674 65.7936 78.8691 66.9519 78.6317C68.0991 78.3312 69.2131 77.9823 70.2684 77.487C70.8131 77.2665 71.2982 76.9934 71.8063 76.7449C72.317 76.4589 72.8148 76.1985 73.2829 75.8725C74.2404 75.2623 75.1136 74.5423 75.9 73.7567C76.6949 72.9763 77.3774 72.098 77.9323 71.1576C78.2285 70.6972 78.4421 70.1942 78.6736 69.7082C78.8583 69.1993 79.0608 68.7005 79.174 68.1763C79.3289 67.6631 79.3749 67.1312 79.4549 66.6094C79.4711 66.0843 79.5264 65.5601 79.4728 65.0427Z" fill="#B195C0"/>
</svg>
