<svg width="94" height="76" viewBox="0 0 94 76" fill="none" xmlns="http://www.w3.org/2000/svg">
<path d="M7.2 57.21C6.67 56.47 6.29 56.01 6.06 55.83C5.83 55.65 5.61 55.56 5.4 55.56C4.81 55.56 4.225 55.93 3.645 56.67C3.075 57.4 2.79 58.06 2.79 58.65C2.79 59.29 3.19 59.61 3.99 59.61C4.41 59.61 4.91 59.415 5.49 59.025C6.08 58.625 6.65 58.02 7.2 57.21ZM8.37 56.4C8.47 56.58 8.61 56.865 8.79 57.255C8.97 57.645 9.13 57.97 9.27 58.23C9.41 58.48 9.59 58.75 9.81 59.04C10.26 59.62 10.895 59.91 11.715 59.91C12.545 59.91 13.335 59.675 14.085 59.205C14.835 58.735 15.455 58.13 15.945 57.39C16.445 56.64 16.835 55.815 17.115 54.915C17.405 54.015 17.55 53.13 17.55 52.26C17.55 49.42 16.22 47.73 13.56 47.19C12.73 48.84 11.805 50.58 10.785 52.41C9.775 54.23 8.97 55.56 8.37 56.4ZM5.88 50.79C5.88 50.91 5.91 51.05 5.97 51.21C5.97 51.25 5.935 51.27 5.865 51.27C5.795 51.27 5.7 51.21 5.58 51.09C5.46 50.97 5.36 50.88 5.28 50.82C5.12 50.7 5.04 50.58 5.04 50.46C5.04 49.77 5.38 49.13 6.06 48.54C6.75 47.95 7.585 47.5 8.565 47.19C9.545 46.87 10.52 46.71 11.49 46.71C11.93 46.71 12.25 46.72 12.45 46.74C12.55 46.51 12.6 46.29 12.6 46.08C12.6 45.66 12.48 45.36 12.24 45.18C12.01 45 11.685 44.91 11.265 44.91C10.855 44.91 10.49 44.975 10.17 45.105C9.86 45.235 9.605 45.365 9.405 45.495C9.215 45.625 9.11 45.69 9.09 45.69C9.03 45.69 9 45.66 9 45.6C9 45.56 9.11 45.46 9.33 45.3C9.55 45.14 9.875 44.975 10.305 44.805C10.735 44.635 11.14 44.55 11.52 44.55C11.91 44.55 12.255 44.59 12.555 44.67C12.855 44.74 13.135 44.9 13.395 45.15C13.665 45.39 13.8 45.71 13.8 46.11C13.8 46.33 13.75 46.59 13.65 46.89C17.11 47.46 18.84 49.49 18.84 52.98C18.84 53.92 18.65 54.84 18.27 55.74C17.89 56.64 17.38 57.425 16.74 58.095C16.1 58.755 15.335 59.29 14.445 59.7C13.565 60.1 12.65 60.3 11.7 60.3C11 60.3 10.34 60.16 9.72 59.88C9.5 59.78 9.25 59.6 8.97 59.34C8.7 59.07 8.49 58.85 8.34 58.68C8.2 58.51 8.03 58.3 7.83 58.05C7.64 57.79 7.52 57.63 7.47 57.57C6.94 58.17 6.465 58.65 6.045 59.01C5.625 59.36 5.16 59.655 4.65 59.895C4.15 60.125 3.715 60.24 3.345 60.24C2.975 60.24 2.65 60.15 2.37 59.97C2.09 59.79 1.95 59.51 1.95 59.13C1.95 58.75 2.105 58.3 2.415 57.78C2.725 57.25 3.1 56.765 3.54 56.325C3.98 55.875 4.465 55.495 4.995 55.185C5.535 54.875 6.01 54.72 6.42 54.72C6.94 54.72 7.47 55.1 8.01 55.86C8.91 54.27 9.755 52.655 10.545 51.015C11.335 49.365 11.93 48.03 12.33 47.01C12.13 46.99 11.82 46.98 11.4 46.98C10.58 46.98 9.74 47.165 8.88 47.535C8.02 47.895 7.305 48.375 6.735 48.975C6.165 49.575 5.88 50.18 5.88 50.79ZM18.935 58.08L18.335 58.56C18.315 58.56 18.305 58.54 18.305 58.5C18.305 58.46 18.34 58.405 18.41 58.335C18.48 58.265 18.675 58.11 18.995 57.87C19.225 57.15 19.57 56.47 20.03 55.83C20.49 55.19 20.96 54.675 21.44 54.285C21.92 53.885 22.375 53.575 22.805 53.355C23.235 53.125 23.575 53.01 23.825 53.01C24.345 53.01 24.605 53.21 24.605 53.61C24.605 53.76 24.55 53.915 24.44 54.075C24.33 54.225 24.125 54.415 23.825 54.645C23.535 54.875 23.255 55.085 22.985 55.275C22.725 55.455 22.305 55.74 21.725 56.13C21.155 56.52 20.665 56.86 20.255 57.15C20.075 57.66 19.985 58.135 19.985 58.575C19.985 59.005 20.1 59.325 20.33 59.535C20.57 59.745 20.965 59.85 21.515 59.85C22.075 59.85 22.715 59.655 23.435 59.265C24.165 58.875 24.855 58.4 25.505 57.84C26.155 57.27 26.635 56.75 26.945 56.28C26.985 56.22 27.025 56.19 27.065 56.19C27.105 56.19 27.125 56.205 27.125 56.235C27.125 56.265 27.115 56.3 27.095 56.34C25.985 57.78 24.645 58.9 23.075 59.7C22.315 60.06 21.575 60.24 20.855 60.24C19.495 60.24 18.815 59.77 18.815 58.83C18.815 58.69 18.855 58.44 18.935 58.08ZM20.375 56.88C21.555 56.03 22.395 55.375 22.895 54.915C23.395 54.445 23.645 54.08 23.645 53.82C23.645 53.56 23.535 53.43 23.315 53.43C22.825 53.43 22.3 53.785 21.74 54.495C21.18 55.195 20.725 55.99 20.375 56.88ZM28.0789 53.22C28.3289 53.22 28.5089 53.305 28.6189 53.475C28.7389 53.635 28.7989 53.845 28.7989 54.105C28.7989 54.355 28.6939 54.75 28.4839 55.29C28.2739 55.83 28.0089 56.445 27.6889 57.135C27.3689 57.825 27.1489 58.33 27.0289 58.65C27.0789 58.59 27.2489 58.37 27.5389 57.99C27.8389 57.6 28.0289 57.355 28.1089 57.255C28.1989 57.145 28.3889 56.91 28.6789 56.55C28.9789 56.18 29.1939 55.925 29.3239 55.785C29.4539 55.635 29.6639 55.4 29.9539 55.08C30.2439 54.75 30.4789 54.5 30.6589 54.33C30.8389 54.16 31.0689 53.94 31.3489 53.67C31.6389 53.39 31.8989 53.16 32.1289 52.98C32.7089 52.52 33.2389 52.15 33.7189 51.87C34.2089 51.59 34.5189 51.45 34.6489 51.45C34.6889 51.45 34.7089 51.48 34.7089 51.54C34.7089 51.56 34.6489 51.605 34.5289 51.675C34.3489 51.775 34.1289 51.9 33.8689 52.05C33.0089 52.59 32.1189 53.325 31.1989 54.255C30.2789 55.175 29.5239 56.03 28.9339 56.82C28.3439 57.6 27.7989 58.34 27.2989 59.04C26.7989 59.74 26.5039 60.135 26.4139 60.225C26.3239 60.315 26.1889 60.36 26.0089 60.36C25.9489 60.36 25.8989 60.3 25.8589 60.18C25.8189 60.06 25.7989 59.95 25.7989 59.85C25.7989 59.21 26.1789 58.02 26.9389 56.28C27.4789 54.96 27.7489 54.185 27.7489 53.955C27.7489 53.725 27.6389 53.61 27.4189 53.61C27.1789 53.61 26.8489 53.75 26.4289 54.03C26.3389 54.09 26.2789 54.12 26.2489 54.12C26.2289 54.12 26.2189 54.1 26.2189 54.06C26.2189 54.02 26.2489 53.98 26.3089 53.94C26.9489 53.46 27.5389 53.22 28.0789 53.22ZM37.3157 57.48C38.3357 56.46 38.8457 55.78 38.8457 55.44C38.8457 55.36 38.8057 55.32 38.7257 55.32C38.5257 55.32 38.0557 56.04 37.3157 57.48ZM37.0157 53.43C36.3857 53.43 35.7407 53.71 35.0807 54.27C34.4307 54.83 33.9057 55.5 33.5057 56.28C33.1057 57.06 32.9057 57.79 32.9057 58.47C32.9057 59.15 33.1857 59.49 33.7457 59.49C34.3657 59.49 35.0557 59.21 35.8157 58.65C36.0257 57.91 36.4557 57.1 37.1057 56.22C37.7057 55.37 38.2057 54.87 38.6057 54.72C38.2657 53.86 37.7357 53.43 37.0157 53.43ZM36.9557 53.07C37.9157 53.07 38.5457 53.6 38.8457 54.66C39.1057 54.66 39.2357 54.77 39.2357 54.99C39.2357 55.26 39.1907 55.485 39.1007 55.665C39.0107 55.835 38.9407 55.965 38.8907 56.055C38.8507 56.135 38.7757 56.24 38.6657 56.37C38.5457 56.5 38.4657 56.59 38.4257 56.64C38.0157 57.1 37.5857 57.53 37.1357 57.93C36.9757 58.45 36.8957 58.8 36.8957 58.98C36.8957 59.4 37.2307 59.61 37.9007 59.61C38.5707 59.61 39.4007 59.21 40.3907 58.41C41.3907 57.61 42.0957 56.9 42.5057 56.28C42.5457 56.22 42.5857 56.19 42.6257 56.19C42.6657 56.19 42.6857 56.205 42.6857 56.235C42.6857 56.265 42.6757 56.3 42.6557 56.34C42.1157 57.06 41.5757 57.655 41.0357 58.125C40.5057 58.595 39.8507 59.055 39.0707 59.505C38.3007 59.955 37.5957 60.18 36.9557 60.18C36.1557 60.18 35.7557 59.86 35.7557 59.22C35.7557 59.19 35.7607 59.145 35.7707 59.085C35.7807 59.025 35.7857 58.98 35.7857 58.95C34.6557 59.65 33.7257 60 32.9957 60C32.1557 60 31.7357 59.49 31.7357 58.47C31.7357 57.73 31.9957 56.94 32.5157 56.1C33.0457 55.25 33.7207 54.535 34.5407 53.955C35.3707 53.365 36.1757 53.07 36.9557 53.07ZM55.0191 62.52C52.5191 63.77 50.6091 64.865 49.2891 65.805C47.7691 66.895 46.6241 67.93 45.8541 68.91C45.4341 69.45 45.0891 70.035 44.8191 70.665C44.5391 71.305 44.3991 71.895 44.3991 72.435C44.3991 73.505 44.8591 74.04 45.7791 74.04C47.8091 74.04 49.7191 72.39 51.5091 69.09C53.1691 66.12 54.3391 63.93 55.0191 62.52ZM60.4491 53.04C59.8991 53.94 59.1991 55.365 58.3491 57.315C57.4991 59.265 56.8591 60.64 56.4291 61.44C58.7691 60.34 60.7791 59.15 62.4591 57.87C62.8291 57.57 63.1641 57.265 63.4641 56.955C63.7741 56.635 63.9691 56.41 64.0491 56.28C64.0891 56.22 64.1291 56.19 64.1691 56.19C64.2091 56.19 64.2291 56.205 64.2291 56.235C64.2291 56.265 64.2191 56.3 64.1991 56.34C63.5991 57.09 62.9991 57.71 62.3991 58.2C61.8091 58.69 60.9341 59.285 59.7741 59.985C58.6141 60.675 57.4091 61.33 56.1591 61.95C55.3291 63.61 54.0191 65.95 52.2291 68.97C51.4691 70.23 50.5491 71.4 49.4691 72.48C48.8691 73.08 48.2091 73.565 47.4891 73.935C46.7691 74.305 46.0341 74.49 45.2841 74.49C44.5241 74.49 43.9441 74.305 43.5441 73.935C43.1341 73.575 42.9291 73.08 42.9291 72.45C42.9291 71.83 43.0941 71.19 43.4241 70.53C43.7541 69.88 44.1741 69.275 44.6841 68.715C45.1841 68.155 45.8141 67.575 46.5741 66.975C47.3341 66.385 48.0591 65.87 48.7491 65.43C49.4491 64.99 50.2441 64.525 51.1341 64.035C52.3341 63.375 53.7191 62.68 55.2891 61.95L57.7791 56.7C56.6291 57.78 55.8341 58.495 55.3941 58.845C54.1741 59.775 53.0291 60.24 51.9591 60.24C51.2191 60.24 50.6241 60.04 50.1741 59.64C49.7241 59.24 49.4991 58.68 49.4991 57.96C49.4991 57.42 49.7191 56.64 50.1591 55.62C50.6091 54.6 51.1041 53.625 51.6441 52.695C53.0741 50.235 53.7891 48.77 53.7891 48.3C53.7891 47.95 53.6841 47.67 53.4741 47.46C53.2741 47.24 52.9541 47.13 52.5141 47.13C52.0841 47.13 51.6791 47.215 51.2991 47.385C50.9291 47.545 50.5291 47.84 50.0991 48.27C50.0491 48.32 49.9991 48.375 49.9491 48.435C49.8591 48.545 49.7991 48.6 49.7691 48.6C49.7091 48.6 49.6791 48.565 49.6791 48.495C49.6791 48.425 49.7891 48.28 50.0091 48.06C50.8791 47.16 51.9091 46.71 53.0991 46.71C53.6991 46.71 54.1641 46.855 54.4941 47.145C54.8241 47.425 54.9891 47.78 54.9891 48.21C54.9891 48.7 54.3091 50.13 52.9491 52.5C52.4391 53.39 51.9691 54.335 51.5391 55.335C51.1191 56.335 50.9091 57.135 50.9091 57.735C50.9091 58.325 51.0691 58.77 51.3891 59.07C51.7091 59.37 52.1291 59.52 52.6491 59.52C54.1491 59.52 56.0191 58.17 58.2591 55.47C58.4591 55.04 58.7241 54.465 59.0541 53.745C59.3941 53.015 59.6291 52.515 59.7591 52.245C59.8891 51.965 60.0691 51.58 60.2991 51.09C60.5391 50.6 60.7191 50.25 60.8391 50.04C60.9591 49.82 61.1091 49.55 61.2891 49.23C61.5891 48.7 61.8691 48.275 62.1291 47.955C62.3891 47.645 62.5491 47.46 62.6091 47.4C62.7891 47.22 62.9641 47.13 63.1341 47.13C63.3041 47.13 63.3891 47.17 63.3891 47.25C63.3891 47.61 62.9941 48.515 62.2041 49.965C61.4241 51.415 60.8391 52.44 60.4491 53.04ZM68.2734 54L68.1834 53.97C68.1834 54.18 68.2634 54.38 68.4234 54.57C68.5934 54.75 68.7934 54.87 69.0234 54.93C69.0434 54.8 69.0534 54.635 69.0534 54.435C69.0534 54.385 69.0534 54.33 69.0534 54.27C69.0534 53.99 68.9684 53.695 68.7984 53.385C68.6284 53.075 68.4934 52.92 68.3934 52.92C68.2534 52.92 68.1834 53.12 68.1834 53.52C68.2434 53.54 68.3034 53.58 68.3634 53.64C68.4234 53.7 68.4534 53.755 68.4534 53.805C68.4534 53.855 68.4284 53.9 68.3784 53.94C68.3284 53.98 68.2934 54 68.2734 54ZM68.9634 55.2C68.5634 55.18 68.2034 55.025 67.8834 54.735C67.5734 54.445 67.4034 54.1 67.3734 53.7C66.7834 53.7 66.1834 53.975 65.5734 54.525C64.9734 55.075 64.4884 55.745 64.1184 56.535C63.7484 57.325 63.5634 58.07 63.5634 58.77C63.5634 59.04 63.6434 59.295 63.8034 59.535C63.9734 59.765 64.2134 59.88 64.5234 59.88C65.4234 59.88 66.3284 59.38 67.2384 58.38C68.1584 57.38 68.7334 56.32 68.9634 55.2ZM71.6184 53.85C71.6484 53.85 71.6634 53.87 71.6634 53.91C71.6634 53.95 71.6284 53.99 71.5584 54.03C71.4984 54.07 71.3734 54.16 71.1834 54.3C71.0034 54.43 70.8534 54.535 70.7334 54.615C70.6234 54.685 70.4784 54.77 70.2984 54.87C69.9484 55.06 69.6034 55.17 69.2634 55.2C69.0134 56.48 68.3734 57.645 67.3434 58.695C66.3234 59.745 65.2534 60.27 64.1334 60.27C63.0134 60.27 62.4534 59.76 62.4534 58.74C62.4534 57.92 62.6934 57.09 63.1734 56.25C63.6634 55.41 64.2934 54.72 65.0634 54.18C65.8334 53.64 66.6034 53.37 67.3734 53.37C67.3934 53.12 67.4684 52.875 67.5984 52.635C67.7284 52.385 67.9134 52.26 68.1534 52.26C68.5234 52.26 68.8134 52.445 69.0234 52.815C69.2434 53.185 69.3534 53.66 69.3534 54.24C69.3534 54.4 69.3334 54.64 69.2934 54.96C69.7434 54.96 70.4634 54.62 71.4534 53.94C71.5434 53.88 71.5984 53.85 71.6184 53.85ZM77.7254 55.17C77.4554 54.69 77.1204 54.28 76.7204 53.94C76.3204 53.6 75.8804 53.43 75.4004 53.43C74.9304 53.43 74.4004 53.695 73.8104 54.225C73.2304 54.745 72.7204 55.42 72.2804 56.25C71.8504 57.08 71.6354 57.87 71.6354 58.62C71.6354 58.85 71.7204 59.055 71.8904 59.235C72.0604 59.405 72.2654 59.49 72.5054 59.49C73.5854 59.49 74.9754 58.61 76.6754 56.85C76.9054 56.62 77.2554 56.06 77.7254 55.17ZM67.1804 73.77C66.4504 74.45 65.6204 74.99 64.6904 75.39C63.7604 75.79 62.8604 75.99 61.9904 75.99C61.1204 75.99 60.3454 75.83 59.6654 75.51C58.9854 75.2 58.4104 74.72 57.9404 74.07C57.4704 73.42 57.2354 72.665 57.2354 71.805C57.2354 70.945 57.4104 70.115 57.7604 69.315C58.1104 68.525 58.5854 67.82 59.1854 67.2C59.7754 66.58 60.4654 65.995 61.2554 65.445C62.0354 64.905 62.8554 64.425 63.7154 64.005C64.5754 63.595 65.4454 63.215 66.3254 62.865C67.6454 62.345 69.2154 61.81 71.0354 61.26C71.0854 61.22 71.1754 61.2 71.3054 61.2C71.4454 61.2 71.5154 61.25 71.5154 61.35C71.5154 61.45 71.4104 61.535 71.2004 61.605C70.9904 61.685 70.5404 61.825 69.8504 62.025C69.1704 62.235 68.5804 62.42 68.0804 62.58C67.5704 62.75 66.8404 63.015 65.8904 63.375C64.9404 63.735 64.1704 64.07 63.5804 64.38C62.9904 64.69 62.3204 65.095 61.5704 65.595C60.8204 66.105 60.2354 66.62 59.8154 67.14C59.3854 67.66 59.0204 68.275 58.7204 68.985C58.4104 69.695 58.2554 70.44 58.2554 71.22C58.2554 72.4 58.6854 73.395 59.5454 74.205C60.3954 75.015 61.3954 75.42 62.5454 75.42C63.6954 75.42 64.8854 74.87 66.1154 73.77C67.3454 72.67 68.4454 71.25 69.4154 69.51C71.6954 65.44 74.0454 61.38 76.4654 57.33C75.7754 58.07 74.9904 58.7 74.1104 59.22C73.2304 59.74 72.4254 60 71.6954 60C70.8954 60 70.4954 59.48 70.4954 58.44C70.4954 57.75 70.7504 56.98 71.2604 56.13C71.7704 55.28 72.4154 54.555 73.1954 53.955C73.9754 53.345 74.7054 53.04 75.3854 53.04C76.4054 53.04 77.2154 53.7 77.8154 55.02L77.9054 54.84C78.0154 54.64 78.1554 54.52 78.3254 54.48C78.4054 54.46 78.4654 54.435 78.5054 54.405C78.5454 54.375 78.5854 54.36 78.6254 54.36C78.6454 54.36 78.6554 54.39 78.6554 54.45C78.6554 54.51 78.6354 54.56 78.5954 54.6C78.5554 54.64 78.3654 54.95 78.0254 55.53C78.0854 55.65 78.1154 55.745 78.1154 55.815C78.1154 55.885 78.0954 55.92 78.0554 55.92L77.9354 55.68L70.5554 69.39C69.6454 71.06 68.5204 72.52 67.1804 73.77ZM84.7766 57.48C85.7966 56.46 86.3066 55.78 86.3066 55.44C86.3066 55.36 86.2666 55.32 86.1866 55.32C85.9866 55.32 85.5166 56.04 84.7766 57.48ZM84.4766 53.43C83.8466 53.43 83.2016 53.71 82.5416 54.27C81.8916 54.83 81.3666 55.5 80.9666 56.28C80.5666 57.06 80.3666 57.79 80.3666 58.47C80.3666 59.15 80.6466 59.49 81.2066 59.49C81.8266 59.49 82.5166 59.21 83.2766 58.65C83.4866 57.91 83.9166 57.1 84.5666 56.22C85.1666 55.37 85.6666 54.87 86.0666 54.72C85.7266 53.86 85.1966 53.43 84.4766 53.43ZM84.4166 53.07C85.3766 53.07 86.0066 53.6 86.3066 54.66C86.5666 54.66 86.6966 54.77 86.6966 54.99C86.6966 55.26 86.6516 55.485 86.5616 55.665C86.4716 55.835 86.4016 55.965 86.3516 56.055C86.3116 56.135 86.2366 56.24 86.1266 56.37C86.0066 56.5 85.9266 56.59 85.8866 56.64C85.4766 57.1 85.0466 57.53 84.5966 57.93C84.4366 58.45 84.3566 58.8 84.3566 58.98C84.3566 59.4 84.6916 59.61 85.3616 59.61C86.0316 59.61 86.8616 59.21 87.8516 58.41C88.8516 57.61 89.5566 56.9 89.9666 56.28C90.0066 56.22 90.0466 56.19 90.0866 56.19C90.1266 56.19 90.1466 56.205 90.1466 56.235C90.1466 56.265 90.1366 56.3 90.1166 56.34C89.5766 57.06 89.0366 57.655 88.4966 58.125C87.9666 58.595 87.3116 59.055 86.5316 59.505C85.7616 59.955 85.0566 60.18 84.4166 60.18C83.6166 60.18 83.2166 59.86 83.2166 59.22C83.2166 59.19 83.2216 59.145 83.2316 59.085C83.2416 59.025 83.2466 58.98 83.2466 58.95C82.1166 59.65 81.1866 60 80.4566 60C79.6166 60 79.1966 59.49 79.1966 58.47C79.1966 57.73 79.4566 56.94 79.9766 56.1C80.5066 55.25 81.1816 54.535 82.0016 53.955C82.8316 53.365 83.6366 53.07 84.4166 53.07Z" fill="#1E0342"/>
<path d="M66 20C66 30.4934 57.4934 39 47 39C36.5066 39 28 30.4934 28 20C28 9.50659 36.5066 0.99999 47 0.99999C57.4934 0.99999 66 9.50659 66 20Z" stroke="#1E0342" stroke-width="2"/>
<path d="M53.0879 25.0726C53.0838 25.0791 53.0929 25.087 53.1116 25.096C53.1037 25.0883 53.0957 25.0805 53.0879 25.0726Z" fill="#1E0342"/>
<path d="M52.4587 18.4648C51.3989 18.8834 50.7492 19.6384 50.1711 20.5843C49.6546 21.4297 49.0906 22.4089 48.1058 22.6561C47.5567 21.7564 46.781 21.0877 45.8855 20.618C46.804 20.0982 47.5834 19.3102 48.0687 18.3819C48.8713 16.8463 48.5723 15.0047 47.0582 14.0523C45.7209 13.211 43.988 13.2937 42.5106 13.66C41.1137 14.0066 39.4035 14.6504 38.5881 15.9237C38.1758 16.5675 39.5885 17.6768 39.9801 17.0655C41.0764 15.3534 44.2739 14.4273 46.18 14.9229C47.2209 15.1935 47.072 16.344 46.7033 17.1717C46.1785 18.3496 44.8256 19.5689 43.4294 19.8406C42.8809 19.7592 42.3242 19.7255 41.7746 19.7413C40.8883 19.7668 41.8655 20.9885 42.2493 21.1043C42.8513 21.2862 43.4687 21.3223 44.0709 21.2407C44.8019 21.3553 45.5133 21.5952 46.0961 22.0351C47.071 22.7709 47.4848 24.1327 47.4298 25.3196C47.3161 27.7714 45.1528 29.4756 42.9124 29.9787C41.1532 30.3738 38.9973 30.1712 37.7963 28.669C36.2542 26.7405 37.1287 24.0787 37.1328 21.8408C37.1341 21.1557 35.5805 20.3457 35.5788 21.2841C35.5743 23.7546 34.8495 26.2129 36.2378 28.4666C37.3013 30.1934 39.174 31.299 41.1752 31.5299C43.2764 31.7724 45.589 31.1478 47.1713 29.719C48.7654 28.2793 49.2886 26.1546 48.7481 24.1663C50.481 24.0414 50.9667 22.1968 51.9292 21.0376C52.9384 19.8222 55.7037 18.7829 56.98 20.2186C58.1374 21.5205 57.0734 24.1217 55.7469 24.8605C55.2072 25.161 54.5621 25.3093 53.9447 25.2814C53.8917 25.2791 53.5807 25.2234 53.3484 25.1679C53.349 25.1075 53.3548 25.0471 53.3656 24.9867C53.3885 24.7897 53.4552 24.5994 53.5184 24.4129C53.6737 23.9562 52.4382 22.7679 52.3045 23.161C51.8229 24.5774 52.687 26.1492 54.1187 26.6078C55.4912 27.0475 57.1358 26.4513 57.9171 25.2603C60.2317 21.7318 56.3991 16.9084 52.4587 18.4648ZM53.0879 25.0726C53.0959 25.0805 53.1039 25.0887 53.1117 25.0967C53.0927 25.0877 53.0838 25.0792 53.0879 25.0726Z" fill="#1E0342"/>
<path d="M55.7538 12.4491C56.1061 12.3564 56.6235 12.0627 56.8091 11.7371C56.9599 11.4723 56.9541 11.3122 56.5875 11.4087C53.5028 12.2213 49.8229 11.791 48.1425 8.73961C47.9677 8.42243 46.4362 9.35822 46.65 9.74661C48.4601 13.0334 52.489 13.3092 55.7538 12.4491Z" fill="#1E0342"/>
<path d="M49.852 8.38293C50.7811 9.18776 51.9266 9.73214 53.1369 9.94684C53.4016 9.99387 53.9361 10.0517 53.9324 9.64822C53.9292 9.28399 53.308 8.98775 53.0236 8.93726C52.2391 8.79808 51.5963 8.496 50.993 7.97319C50.7153 7.73261 50.1478 7.51294 49.7871 7.67283C49.4069 7.84113 49.6242 8.1855 49.852 8.38293Z" fill="#1E0342"/>
</svg>
