<svg width="30" height="35" viewBox="0 0 30 35" fill="none" xmlns="http://www.w3.org/2000/svg">
<path d="M15 0C15.2631 0.23331 15.4042 0.486647 15.5696 0.795095C16.2477 1.97327 17.1475 2.87099 18.249 3.66471C19.5279 4.58633 20.3414 6.04467 20.6013 7.59494C20.6922 7.56752 20.7831 7.54011 20.8768 7.51187C22.6289 7.01166 24.0559 7.14305 25.7338 7.88568C27.0825 8.476 28.4521 8.54029 29.9051 8.63924C29.7944 8.9219 29.6787 9.19801 29.5439 9.46994C28.9663 10.6512 28.5851 11.7313 28.4598 13.0447C28.2903 14.7094 27.3942 16.1283 26.2025 17.2785C26.2802 17.3479 26.2802 17.3479 26.3594 17.4187C27.6342 18.6172 28.3327 20.0438 28.5008 21.7853C28.635 23.0802 29.0902 24.1821 29.7256 25.3088C29.9051 25.6329 29.9051 25.6329 30 25.9177C29.8773 25.9224 29.7545 25.927 29.628 25.9318C28.0394 25.9974 26.563 26.125 25.1286 26.8849C23.8058 27.567 22.086 27.3041 20.6962 26.962C20.6335 26.9307 20.5709 26.8994 20.5063 26.8671C20.5122 26.945 20.5181 27.023 20.5241 27.1033C20.502 27.5185 20.382 27.834 20.2215 28.214C20.1917 28.2851 20.1619 28.3562 20.1312 28.4294C19.6625 29.5039 18.9242 30.4909 17.9193 31.1155C16.6524 31.9288 15.737 33.2154 15.0949 34.557C14.8467 34.2599 14.632 33.9568 14.4312 33.6259C13.6155 32.2896 12.5896 31.4011 11.3353 30.484C10.3706 29.6402 9.78751 28.2777 9.49367 27.057C9.49367 26.9943 9.49367 26.9316 9.49367 26.8671C9.43285 26.8865 9.37203 26.906 9.30936 26.9261C9.22724 26.9516 9.14513 26.9772 9.06052 27.0036C8.98012 27.0289 8.89972 27.0542 8.81688 27.0803C7.31201 27.4755 5.70603 27.3377 4.3389 26.6079C3.26323 26.1027 2.11699 26.0084 0.949367 25.9593C0.857705 25.9552 0.766043 25.9511 0.671603 25.9468C0.447746 25.9369 0.22388 25.9272 0 25.9177C0.0493189 25.8361 0.0986377 25.7545 0.149451 25.6704C0.593691 24.9226 0.957395 24.1827 1.23418 23.3544C1.26232 23.2722 1.29047 23.19 1.31947 23.1052C1.48755 22.5594 1.55061 22.0274 1.60206 21.4616C1.67266 20.7248 1.83652 20.1228 2.18354 19.462C2.23152 19.3666 2.27949 19.2711 2.32892 19.1728C2.71438 18.4564 3.19752 17.919 3.79747 17.3734C3.65487 17.0414 3.46028 16.8249 3.21005 16.5665C2.26552 15.5323 1.73976 14.3857 1.62579 13.0004C1.50041 11.5387 0.973328 10.3069 0.261818 9.03642C0.0949367 8.73418 0.0949367 8.73418 0.0949367 8.63924C0.209729 8.63569 0.32452 8.63214 0.442791 8.62849C1.91872 8.57352 3.20125 8.30103 4.5718 7.75876C4.82472 7.65922 5.07921 7.56426 5.33426 7.47033C5.45082 7.42683 5.45082 7.42683 5.56974 7.38244C6.84392 6.96625 8.14844 7.24832 9.39873 7.59494C9.53441 7.18865 9.53441 7.18865 9.66686 6.7813C10.1798 5.26349 11.0473 4.19797 12.331 3.26493C13.4948 2.37132 14.2573 1.25043 15 0Z" fill="#B195C0"/>
<path d="M9.49367 7.6897C11.026 8.09832 12.3087 9.2662 13.1428 10.5912C13.2581 10.7935 13.371 10.9972 13.481 11.2024C13.5324 11.295 13.5838 11.3876 13.6368 11.4831C14.4483 13.014 14.8038 14.7146 15 16.4239C15.0345 16.2447 15.0345 16.2447 15.0697 16.0619C15.1695 15.5489 15.2733 15.0368 15.3797 14.5251C15.3944 14.4543 15.4091 14.3835 15.4243 14.3106C15.8975 12.0908 17.022 9.72444 18.9619 8.43482C20.0286 7.76706 20.0286 7.76706 20.6013 7.6897C21.0503 9.59904 20.3511 11.5595 19.3562 13.1784C19.1293 13.5205 18.875 13.8345 18.6076 14.1454C18.547 14.216 18.547 14.216 18.4852 14.2879C17.6205 15.2858 16.6772 16.173 15.5696 16.8986C15.6482 16.864 15.7268 16.8295 15.8077 16.794C18.4237 15.6922 21.5092 14.9819 24.2426 16.0784C24.9044 16.3609 25.4776 16.6944 26.0127 17.1834C25.8341 17.719 25.168 17.9706 24.6835 18.2277C22.1725 19.4177 19.3119 18.967 16.7867 18.0727C16.7253 18.0506 16.6639 18.0285 16.6007 18.0058C16.3532 17.9176 16.1039 17.8351 15.8544 17.753C15.9358 17.8218 16.0172 17.8905 16.101 17.9614C16.2681 18.1026 16.4351 18.2439 16.6019 18.3854C16.832 18.5805 17.062 18.7754 17.2952 18.9668C17.7178 19.3156 18.0707 19.7028 18.4177 20.1264C18.4924 20.2165 18.567 20.3065 18.6439 20.3993C19.9002 21.9493 20.7194 23.727 20.7081 25.7514C20.7084 25.8185 20.7088 25.8855 20.7092 25.9546C20.7086 26.2527 20.6962 26.4872 20.6013 26.772C19.5223 26.6557 18.5887 25.8024 17.8481 25.0631C17.79 25.0061 17.7318 24.9491 17.6719 24.8903C15.9272 23.0457 15.4074 20.449 15 18.0378C14.9838 18.1504 14.9677 18.263 14.951 18.379C14.5558 21.0589 13.7763 24.0248 11.5098 25.761C10.0747 26.772 10.0747 26.772 9.49367 26.772C9.17552 25.6265 9.37122 24.3507 9.77848 23.2593C9.81397 23.1609 9.84946 23.0625 9.88603 22.9612C10.7296 20.7824 12.5012 19.037 14.3354 17.6581C14.2854 17.6762 14.2353 17.6943 14.1837 17.713C13.1366 18.0907 12.097 18.4455 11.0127 18.7024C10.9314 18.7238 10.8501 18.7452 10.7664 18.7673C8.6105 19.2619 6.38838 18.8216 4.50579 17.7289C4.2764 17.5661 4.13998 17.4175 3.98734 17.1834C5.76351 15.8282 7.72376 15.4016 9.91421 15.5987C11.1935 15.779 12.4103 16.1435 13.619 16.5882C13.8591 16.6741 14.0869 16.7504 14.3354 16.8036C14.2779 16.7587 14.2204 16.7138 14.1611 16.6675C13.5648 16.1969 12.9927 15.7073 12.4367 15.1897C12.3654 15.1246 12.294 15.0595 12.2205 14.9924C10.8197 13.663 9.46544 11.5279 9.38995 9.54792C9.38602 9.28247 9.38578 9.01727 9.38687 8.7518C9.38632 8.61422 9.38632 8.61422 9.38575 8.47385C9.38588 8.38678 9.386 8.29971 9.38613 8.20999C9.38623 8.13059 9.38634 8.05119 9.38645 7.96939C9.39873 7.78463 9.39873 7.78463 9.49367 7.6897Z" fill="#1E0342"/>
</svg>
