<svg width="150" height="120" viewBox="0 0 150 120" fill="none" xmlns="http://www.w3.org/2000/svg">
<path d="M11.4894 90.3316C10.6436 89.1632 10.0372 88.4368 9.6702 88.1526C9.30318 87.8684 8.95212 87.7263 8.61701 87.7263C7.67552 87.7263 6.74201 88.3105 5.81648 89.4789C4.90691 90.6316 4.45212 91.6737 4.45212 92.6053C4.45212 93.6158 5.09042 94.1211 6.36701 94.1211C7.03723 94.1211 7.8351 93.8132 8.76063 93.1974C9.70212 92.5658 10.6117 91.6105 11.4894 90.3316ZM13.3564 89.0526C13.516 89.3368 13.7394 89.7868 14.0266 90.4026C14.3138 91.0184 14.5691 91.5316 14.7925 91.9421C15.016 92.3368 15.3032 92.7632 15.6542 93.2211C16.3723 94.1368 17.3856 94.5947 18.6941 94.5947C20.0186 94.5947 21.2792 94.2237 22.4761 93.4816C23.6729 92.7395 24.6622 91.7842 25.4441 90.6158C26.242 89.4316 26.8644 88.1289 27.3112 86.7079C27.7739 85.2868 28.0053 83.8895 28.0053 82.5158C28.0053 78.0316 25.883 75.3632 21.6383 74.5105C20.3138 77.1158 18.8378 79.8632 17.2101 82.7526C15.5984 85.6263 14.3138 87.7263 13.3564 89.0526ZM9.38297 80.1947C9.38297 80.3842 9.43084 80.6053 9.52659 80.8579C9.52659 80.921 9.47074 80.9526 9.35903 80.9526C9.24733 80.9526 9.09574 80.8579 8.90425 80.6684C8.71276 80.4789 8.55318 80.3368 8.42552 80.2421C8.17021 80.0526 8.04255 79.8632 8.04255 79.6737C8.04255 78.5842 8.5851 77.5737 9.6702 76.6421C10.7713 75.7105 12.1037 75 13.6675 74.5105C15.2314 74.0053 16.7872 73.7526 18.3351 73.7526C19.0372 73.7526 19.5479 73.7684 19.867 73.8C20.0266 73.4368 20.1064 73.0895 20.1064 72.7579C20.1064 72.0947 19.9149 71.6211 19.5319 71.3368C19.1649 71.0526 18.6463 70.9105 17.9761 70.9105C17.3218 70.9105 16.7394 71.0132 16.2287 71.2184C15.734 71.4237 15.3271 71.6289 15.008 71.8342C14.7048 72.0395 14.5372 72.1421 14.5053 72.1421C14.4096 72.1421 14.3617 72.0947 14.3617 72C14.3617 71.9368 14.5372 71.7789 14.8883 71.5263C15.2394 71.2737 15.758 71.0132 16.4441 70.7447C17.1303 70.4763 17.7766 70.3421 18.383 70.3421C19.0053 70.3421 19.5558 70.4053 20.0346 70.5316C20.5133 70.6421 20.9601 70.8947 21.375 71.2895C21.8058 71.6684 22.0213 72.1737 22.0213 72.8053C22.0213 73.1526 21.9415 73.5632 21.7819 74.0368C27.3032 74.9368 30.0638 78.1421 30.0638 83.6526C30.0638 85.1368 29.7606 86.5895 29.1542 88.0105C28.5479 89.4316 27.734 90.6711 26.7128 91.7289C25.6915 92.7711 24.4707 93.6158 23.0505 94.2632C21.6463 94.8947 20.1862 95.2105 18.6702 95.2105C17.5532 95.2105 16.5 94.9895 15.5106 94.5474C15.1596 94.3895 14.7606 94.1053 14.3138 93.6947C13.883 93.2684 13.5479 92.9211 13.3085 92.6526C13.0851 92.3842 12.8138 92.0526 12.4947 91.6579C12.1915 91.2474 12 90.9947 11.9202 90.9C11.0745 91.8474 10.3165 92.6053 9.64627 93.1737C8.97606 93.7263 8.23403 94.1921 7.42021 94.5711C6.62233 94.9342 5.92818 95.1158 5.33776 95.1158C4.74733 95.1158 4.22872 94.9737 3.78191 94.6895C3.3351 94.4053 3.11169 93.9632 3.11169 93.3632C3.11169 92.7632 3.35903 92.0526 3.85372 91.2316C4.3484 90.3947 4.9468 89.6289 5.64893 88.9342C6.35106 88.2237 7.12499 87.6237 7.97074 87.1342C8.83244 86.6447 9.59042 86.4 10.2447 86.4C11.0745 86.4 11.9202 87 12.7819 88.2C14.2181 85.6895 15.5665 83.1395 16.8271 80.55C18.0878 77.9447 19.0372 75.8368 19.6755 74.2263C19.3564 74.1947 18.8617 74.1789 18.1915 74.1789C16.883 74.1789 15.5425 74.4711 14.1702 75.0553C12.7979 75.6237 11.6569 76.3816 10.7473 77.3289C9.83776 78.2763 9.38297 79.2316 9.38297 80.1947ZM30.2154 91.7053L29.258 92.4632C29.2261 92.4632 29.2101 92.4316 29.2101 92.3684C29.2101 92.3053 29.2659 92.2184 29.3777 92.1079C29.4894 91.9974 29.8005 91.7526 30.3112 91.3737C30.6782 90.2368 31.2287 89.1632 31.9628 88.1526C32.6968 87.1421 33.4468 86.3289 34.2128 85.7132C34.9787 85.0816 35.7048 84.5921 36.3909 84.2447C37.0771 83.8816 37.6197 83.7 38.0186 83.7C38.8484 83.7 39.2633 84.0158 39.2633 84.6474C39.2633 84.8842 39.1755 85.1289 39 85.3816C38.8245 85.6184 38.4973 85.9184 38.0186 86.2816C37.5558 86.6447 37.109 86.9763 36.6782 87.2763C36.2633 87.5605 35.5931 88.0105 34.6675 88.6263C33.758 89.2421 32.9761 89.7789 32.3218 90.2368C32.0346 91.0421 31.891 91.7921 31.891 92.4868C31.891 93.1658 32.0745 93.671 32.4415 94.0026C32.8245 94.3342 33.4548 94.5 34.3324 94.5C35.2261 94.5 36.2473 94.1921 37.3963 93.5763C38.5612 92.9605 39.6622 92.2105 40.6995 91.3263C41.7367 90.4263 42.5027 89.6053 42.9973 88.8632C43.0612 88.7684 43.125 88.721 43.1888 88.721C43.2527 88.721 43.2846 88.7447 43.2846 88.7921C43.2846 88.8395 43.2686 88.8947 43.2367 88.9579C41.4654 91.2316 39.3271 93 36.8218 94.2632C35.609 94.8316 34.4282 95.1158 33.2792 95.1158C31.109 95.1158 30.0239 94.3737 30.0239 92.8895C30.0239 92.6684 30.0878 92.2737 30.2154 91.7053ZM32.5133 89.8105C34.3963 88.4684 35.7367 87.4342 36.5346 86.7079C37.3324 85.9658 37.7314 85.3895 37.7314 84.9789C37.7314 84.5684 37.5558 84.3632 37.2048 84.3632C36.4229 84.3632 35.5851 84.9237 34.6915 86.0447C33.7979 87.15 33.0718 88.4053 32.5133 89.8105ZM44.8067 84.0316C45.2057 84.0316 45.4929 84.1658 45.6685 84.4342C45.8599 84.6868 45.9557 85.0184 45.9557 85.4289C45.9557 85.8237 45.7881 86.4474 45.453 87.3C45.1179 88.1526 44.695 89.1237 44.1844 90.2132C43.6738 91.3026 43.3227 92.1 43.1312 92.6053C43.211 92.5105 43.4823 92.1632 43.945 91.5632C44.4238 90.9474 44.727 90.5605 44.8546 90.4026C44.9982 90.2289 45.3014 89.8579 45.7642 89.2895C46.2429 88.7053 46.586 88.3026 46.7935 88.0816C47.0009 87.8447 47.336 87.4737 47.7988 86.9684C48.2615 86.4474 48.6365 86.0526 48.9238 85.7842C49.211 85.5158 49.578 85.1684 50.0248 84.7421C50.4876 84.3 50.9025 83.9368 51.2695 83.6526C52.195 82.9263 53.0408 82.3421 53.8067 81.9C54.5887 81.4579 55.0833 81.2368 55.2908 81.2368C55.3546 81.2368 55.3865 81.2842 55.3865 81.3789C55.3865 81.4105 55.2908 81.4816 55.0993 81.5921C54.8121 81.75 54.461 81.9474 54.0461 82.1842C52.6738 83.0368 51.2536 84.1974 49.7855 85.6658C48.3174 87.1184 47.1126 88.4684 46.1711 89.7158C45.2296 90.9474 44.3599 92.1158 43.5621 93.2211C42.7642 94.3263 42.2935 94.95 42.1498 95.0921C42.0062 95.2342 41.7908 95.3053 41.5036 95.3053C41.4078 95.3053 41.328 95.2105 41.2642 95.0211C41.2004 94.8316 41.1685 94.6579 41.1685 94.5C41.1685 93.4895 41.7748 91.6105 42.9876 88.8632C43.8493 86.7789 44.2802 85.5553 44.2802 85.1921C44.2802 84.8289 44.1046 84.6474 43.7536 84.6474C43.3706 84.6474 42.844 84.8684 42.1738 85.3105C42.0302 85.4053 41.9344 85.4526 41.8865 85.4526C41.8546 85.4526 41.8387 85.4211 41.8387 85.3579C41.8387 85.2947 41.8865 85.2316 41.9823 85.1684C43.0036 84.4105 43.945 84.0316 44.8067 84.0316ZM59.5463 90.7579C61.174 89.1474 61.9878 88.0737 61.9878 87.5368C61.9878 87.4105 61.924 87.3474 61.7963 87.3474C61.4772 87.3474 60.7272 88.4842 59.5463 90.7579ZM59.0676 84.3632C58.0623 84.3632 57.033 84.8053 55.9798 85.6895C54.9426 86.5737 54.1048 87.6316 53.4665 88.8632C52.8282 90.0947 52.5091 91.2474 52.5091 92.3211C52.5091 93.3947 52.9559 93.9316 53.8495 93.9316C54.8389 93.9316 55.9399 93.4895 57.1527 92.6053C57.4878 91.4368 58.174 90.1579 59.2112 88.7684C60.1687 87.4263 60.9665 86.6368 61.6048 86.4C61.0623 85.0421 60.2165 84.3632 59.0676 84.3632ZM58.9719 83.7947C60.5038 83.7947 61.5091 84.6316 61.9878 86.3053C62.4027 86.3053 62.6102 86.4789 62.6102 86.8263C62.6102 87.2526 62.5383 87.6079 62.3947 87.8921C62.2511 88.1605 62.1394 88.3658 62.0596 88.5079C61.9958 88.6342 61.8761 88.8 61.7006 89.0053C61.5091 89.2105 61.3814 89.3526 61.3176 89.4316C60.6633 90.1579 59.9772 90.8368 59.2591 91.4684C59.0038 92.2895 58.8761 92.8421 58.8761 93.1263C58.8761 93.7895 59.4107 94.1211 60.4798 94.1211C61.549 94.1211 62.8735 93.4895 64.4532 92.2263C66.049 90.9632 67.174 89.8421 67.8282 88.8632C67.8921 88.7684 67.9559 88.721 68.0197 88.721C68.0836 88.721 68.1155 88.7447 68.1155 88.7921C68.1155 88.8395 68.0995 88.8947 68.0676 88.9579C67.2059 90.0947 66.3442 91.0342 65.4825 91.7763C64.6368 92.5184 63.5915 93.2447 62.3469 93.9553C61.1181 94.6658 59.9931 95.0211 58.9719 95.0211C57.6953 95.0211 57.057 94.5158 57.057 93.5053C57.057 93.4579 57.0649 93.3868 57.0809 93.2921C57.0969 93.1974 57.1048 93.1263 57.1048 93.0789C55.3016 94.1842 53.8176 94.7368 52.6527 94.7368C51.3123 94.7368 50.6421 93.9316 50.6421 92.3211C50.6421 91.1526 51.057 89.9053 51.8867 88.5789C52.7325 87.2368 53.8096 86.1079 55.1181 85.1921C56.4426 84.2605 57.7272 83.7947 58.9719 83.7947ZM87.7964 98.7158C83.8071 100.689 80.7592 102.418 78.6528 103.903C76.2273 105.624 74.4002 107.258 73.1714 108.805C72.5012 109.658 71.9507 110.582 71.5198 111.576C71.073 112.587 70.8496 113.518 70.8496 114.371C70.8496 116.061 71.5837 116.905 73.0517 116.905C76.2911 116.905 79.339 114.3 82.1954 109.089C84.8443 104.4 86.7113 100.942 87.7964 98.7158ZM96.4613 83.7474C95.5837 85.1684 94.4666 87.4184 93.1103 90.4974C91.7539 93.5763 90.7326 95.7474 90.0464 97.0105C93.7805 95.2737 96.9879 93.3947 99.6688 91.3737C100.259 90.9 100.794 90.4184 101.272 89.9289C101.767 89.4237 102.078 89.0684 102.206 88.8632C102.27 88.7684 102.334 88.721 102.397 88.721C102.461 88.721 102.493 88.7447 102.493 88.7921C102.493 88.8395 102.477 88.8947 102.445 88.9579C101.488 90.1421 100.53 91.1211 99.573 91.8947C98.6315 92.6684 97.2353 93.6079 95.3842 94.7132C93.5331 95.8026 91.6103 96.8368 89.6156 97.8158C88.2911 100.437 86.2007 104.132 83.3443 108.9C82.1315 110.889 80.6635 112.737 78.94 114.442C77.9826 115.389 76.9294 116.155 75.7805 116.739C74.6315 117.324 73.4587 117.616 72.2619 117.616C71.0491 117.616 70.1236 117.324 69.4853 116.739C68.831 116.171 68.5039 115.389 68.5039 114.395C68.5039 113.416 68.7672 112.405 69.2938 111.363C69.8204 110.337 70.4906 109.382 71.3044 108.497C72.1023 107.613 73.1076 106.697 74.3204 105.75C75.5331 104.818 76.69 104.005 77.7911 103.311C78.9081 102.616 80.1768 101.882 81.597 101.108C83.5119 100.066 85.722 98.9684 88.2273 97.8158L92.2007 89.5263C90.3656 91.2316 89.097 92.3605 88.3948 92.9132C86.448 94.3816 84.6209 95.1158 82.9134 95.1158C81.7326 95.1158 80.7831 94.8 80.065 94.1684C79.347 93.5368 78.9879 92.6526 78.9879 91.5158C78.9879 90.6632 79.339 89.4316 80.0411 87.821C80.7592 86.2105 81.5491 84.671 82.4108 83.2026C84.6927 79.3184 85.8337 77.0053 85.8337 76.2632C85.8337 75.7105 85.6661 75.2684 85.331 74.9368C85.0119 74.5895 84.5012 74.4158 83.7991 74.4158C83.1129 74.4158 82.4666 74.55 81.8603 74.8184C81.2698 75.071 80.6315 75.5368 79.9454 76.2158C79.8656 76.2947 79.7858 76.3816 79.706 76.4763C79.5624 76.65 79.4666 76.7368 79.4188 76.7368C79.323 76.7368 79.2752 76.6816 79.2752 76.571C79.2752 76.4605 79.4507 76.2316 79.8018 75.8842C81.19 74.4632 82.8337 73.7526 84.7326 73.7526C85.69 73.7526 86.4321 73.9816 86.9587 74.4395C87.4853 74.8816 87.7486 75.4421 87.7486 76.121C87.7486 76.8947 86.6635 79.1526 84.4932 82.8947C83.6794 84.3 82.9294 85.7921 82.2432 87.371C81.573 88.95 81.2379 90.2132 81.2379 91.1605C81.2379 92.0921 81.4932 92.7947 82.0039 93.2684C82.5145 93.7421 83.1847 93.9789 84.0145 93.9789C86.4081 93.9789 89.3922 91.8474 92.9666 87.5842C93.2858 86.9053 93.7087 85.9974 94.2353 84.8605C94.7778 83.7079 95.1528 82.9184 95.3603 82.4921C95.5677 82.05 95.8549 81.4421 96.222 80.6684C96.6049 79.8947 96.8922 79.3421 97.0837 79.0105C97.2752 78.6632 97.5145 78.2368 97.8018 77.7316C98.2805 76.8947 98.7273 76.2237 99.1422 75.7184C99.5571 75.2289 99.8124 74.9368 99.9081 74.8421C100.195 74.5579 100.475 74.4158 100.746 74.4158C101.017 74.4158 101.153 74.4789 101.153 74.6053C101.153 75.1737 100.522 76.6026 99.2619 78.8921C98.0172 81.1816 97.0837 82.8 96.4613 83.7474ZM108.947 85.2632L108.803 85.2158C108.803 85.5474 108.931 85.8632 109.186 86.1632C109.458 86.4474 109.777 86.6368 110.144 86.7316C110.176 86.5263 110.192 86.2658 110.192 85.95C110.192 85.8711 110.192 85.7842 110.192 85.6895C110.192 85.2474 110.056 84.7816 109.785 84.2921C109.513 83.8026 109.298 83.5579 109.138 83.5579C108.915 83.5579 108.803 83.8737 108.803 84.5053C108.899 84.5368 108.995 84.6 109.091 84.6947C109.186 84.7895 109.234 84.8763 109.234 84.9553C109.234 85.0342 109.194 85.1053 109.114 85.1684C109.035 85.2316 108.979 85.2632 108.947 85.2632ZM110.048 87.1579C109.41 87.1263 108.835 86.8816 108.325 86.4237C107.83 85.9658 107.559 85.4211 107.511 84.7895C106.569 84.7895 105.612 85.2237 104.638 86.0921C103.681 86.9605 102.907 88.0184 102.317 89.2658C101.726 90.5132 101.431 91.6895 101.431 92.7947C101.431 93.2211 101.559 93.6237 101.814 94.0026C102.085 94.3658 102.468 94.5474 102.963 94.5474C104.399 94.5474 105.843 93.7579 107.295 92.1789C108.763 90.6 109.681 88.9263 110.048 87.1579ZM114.285 85.0263C114.333 85.0263 114.356 85.0579 114.356 85.121C114.356 85.1842 114.301 85.2474 114.189 85.3105C114.093 85.3737 113.894 85.5158 113.591 85.7368C113.303 85.9421 113.064 86.1079 112.872 86.2342C112.697 86.3447 112.466 86.4789 112.178 86.6368C111.62 86.9368 111.069 87.1105 110.527 87.1579C110.128 89.1789 109.106 91.0184 107.463 92.6763C105.835 94.3342 104.128 95.1632 102.341 95.1632C100.553 95.1632 99.6597 94.3579 99.6597 92.7474C99.6597 91.4526 100.043 90.1421 100.809 88.8158C101.591 87.4895 102.596 86.4 103.825 85.5474C105.053 84.6947 106.282 84.2684 107.511 84.2684C107.543 83.8737 107.662 83.4868 107.87 83.1079C108.077 82.7132 108.372 82.5158 108.755 82.5158C109.346 82.5158 109.809 82.8079 110.144 83.3921C110.495 83.9763 110.67 84.7263 110.67 85.6421C110.67 85.8947 110.638 86.2737 110.575 86.7789C111.293 86.7789 112.442 86.2421 114.021 85.1684C114.165 85.0737 114.253 85.0263 114.285 85.0263ZM124.03 87.1105C123.599 86.3526 123.064 85.7053 122.426 85.1684C121.788 84.6316 121.086 84.3632 120.32 84.3632C119.57 84.3632 118.724 84.7816 117.783 85.6184C116.857 86.4395 116.043 87.5053 115.341 88.8158C114.655 90.1263 114.312 91.3737 114.312 92.5579C114.312 92.921 114.447 93.2447 114.719 93.5289C114.99 93.7974 115.317 93.9316 115.7 93.9316C117.424 93.9316 119.642 92.5421 122.354 89.7632C122.721 89.4 123.28 88.5158 124.03 87.1105ZM107.203 116.479C106.038 117.553 104.713 118.405 103.229 119.037C101.745 119.668 100.309 119.984 98.9208 119.984C97.5325 119.984 96.2958 119.732 95.2107 119.226C94.1256 118.737 93.2081 117.979 92.4581 116.953C91.7081 115.926 91.3331 114.734 91.3331 113.376C91.3331 112.018 91.6123 110.708 92.1708 109.445C92.7294 108.197 93.4873 107.084 94.4448 106.105C95.3863 105.126 96.4873 104.203 97.748 103.334C98.9927 102.482 100.301 101.724 101.674 101.061C103.046 100.413 104.434 99.8132 105.838 99.2605C107.945 98.4395 110.45 97.5947 113.354 96.7263C113.434 96.6632 113.578 96.6316 113.785 96.6316C114.009 96.6316 114.12 96.7105 114.12 96.8684C114.12 97.0263 113.953 97.1605 113.618 97.271C113.283 97.3974 112.564 97.6184 111.463 97.9342C110.378 98.2658 109.437 98.5579 108.639 98.8105C107.825 99.0789 106.66 99.4974 105.144 100.066C103.628 100.634 102.4 101.163 101.458 101.653C100.517 102.142 99.4474 102.782 98.2506 103.571C97.0538 104.376 96.1203 105.189 95.4501 106.011C94.7639 106.832 94.1815 107.803 93.7028 108.924C93.2081 110.045 92.9607 111.221 92.9607 112.453C92.9607 114.316 93.6469 115.887 95.0192 117.166C96.3756 118.445 97.9714 119.084 99.8065 119.084C101.642 119.084 103.541 118.216 105.503 116.479C107.466 114.742 109.221 112.5 110.769 109.753C114.408 103.326 118.158 96.9158 122.019 90.5211C120.918 91.6895 119.666 92.6842 118.261 93.5053C116.857 94.3263 115.572 94.7368 114.408 94.7368C113.131 94.7368 112.493 93.9158 112.493 92.2737C112.493 91.1842 112.9 89.9684 113.713 88.6263C114.527 87.2842 115.556 86.1395 116.801 85.1921C118.046 84.2289 119.211 83.7474 120.296 83.7474C121.924 83.7474 123.216 84.7895 124.174 86.8737L124.317 86.5895C124.493 86.2737 124.716 86.0842 124.987 86.021C125.115 85.9895 125.211 85.95 125.275 85.9026C125.338 85.8553 125.402 85.8316 125.466 85.8316C125.498 85.8316 125.514 85.8789 125.514 85.9737C125.514 86.0684 125.482 86.1474 125.418 86.2105C125.354 86.2737 125.051 86.7632 124.509 87.6789C124.604 87.8684 124.652 88.0184 124.652 88.1289C124.652 88.2395 124.62 88.2947 124.556 88.2947L124.365 87.9158L112.588 109.563C111.136 112.2 109.341 114.505 107.203 116.479ZM135.282 90.7579C136.909 89.1474 137.723 88.0737 137.723 87.5368C137.723 87.4105 137.659 87.3474 137.532 87.3474C137.213 87.3474 136.463 88.4842 135.282 90.7579ZM134.803 84.3632C133.798 84.3632 132.769 84.8053 131.715 85.6895C130.678 86.5737 129.84 87.6316 129.202 88.8632C128.564 90.0947 128.245 91.2474 128.245 92.3211C128.245 93.3947 128.691 93.9316 129.585 93.9316C130.574 93.9316 131.675 93.4895 132.888 92.6053C133.223 91.4368 133.909 90.1579 134.947 88.7684C135.904 87.4263 136.702 86.6368 137.34 86.4C136.798 85.0421 135.952 84.3632 134.803 84.3632ZM134.707 83.7947C136.239 83.7947 137.245 84.6316 137.723 86.3053C138.138 86.3053 138.346 86.4789 138.346 86.8263C138.346 87.2526 138.274 87.6079 138.13 87.8921C137.987 88.1605 137.875 88.3658 137.795 88.5079C137.731 88.6342 137.612 88.8 137.436 89.0053C137.245 89.2105 137.117 89.3526 137.053 89.4316C136.399 90.1579 135.713 90.8368 134.995 91.4684C134.739 92.2895 134.612 92.8421 134.612 93.1263C134.612 93.7895 135.146 94.1211 136.215 94.1211C137.284 94.1211 138.609 93.4895 140.189 92.2263C141.784 90.9632 142.909 89.8421 143.564 88.8632C143.628 88.7684 143.691 88.721 143.755 88.721C143.819 88.721 143.851 88.7447 143.851 88.7921C143.851 88.8395 143.835 88.8947 143.803 88.9579C142.941 90.0947 142.08 91.0342 141.218 91.7763C140.372 92.5184 139.327 93.2447 138.082 93.9553C136.854 94.6658 135.729 95.0211 134.707 95.0211C133.431 95.0211 132.792 94.5158 132.792 93.5053C132.792 93.4579 132.8 93.3868 132.816 93.2921C132.832 93.1974 132.84 93.1263 132.84 93.0789C131.037 94.1842 129.553 94.7368 128.388 94.7368C127.048 94.7368 126.378 93.9316 126.378 92.3211C126.378 91.1526 126.792 89.9053 127.622 88.5789C128.468 87.2368 129.545 86.1079 130.854 85.1921C132.178 84.2605 133.463 83.7947 134.707 83.7947Z" fill="#1E0342"/>
<path d="M105.319 31.5789C105.319 48.1475 91.7448 61.5789 75 61.5789C58.2552 61.5789 44.6808 48.1475 44.6808 31.5789C44.6808 15.0104 58.2552 1.57892 75 1.57892C91.7448 1.57892 105.319 15.0104 105.319 31.5789Z" fill="#E7D0F5" stroke="#1E0342" stroke-width="2"/>
<path d="M84.7148 39.5883C84.7082 39.5988 84.7228 39.6114 84.7528 39.6259C84.7401 39.6135 84.7273 39.601 84.7148 39.5883Z" fill="#1E0342"/>
<path d="M83.7107 29.1549C82.0195 29.8159 80.9828 31.008 80.0603 32.5015C79.2361 33.8364 78.3361 35.3825 76.7646 35.7728C75.8883 34.3522 74.6505 33.2964 73.2215 32.5547C74.6872 31.734 75.9309 30.4898 76.7054 29.024C77.9861 26.5994 77.509 23.6916 75.0929 22.1878C72.9589 20.8595 70.1936 20.99 67.8361 21.5684C65.607 22.1157 62.8779 23.1322 61.5767 25.1427C60.9188 26.1592 63.1731 27.9107 63.798 26.9455C65.5474 24.2422 70.6498 22.7799 73.6915 23.5625C75.3525 23.9897 75.1149 25.8063 74.5265 27.1132C73.6891 28.973 71.5302 30.8982 69.3022 31.3272C68.427 31.1987 67.5386 31.1455 66.6616 31.1705C65.2473 31.2107 66.8066 33.1397 67.4191 33.3226C68.3797 33.6098 69.3649 33.6668 70.3259 33.5379C71.4924 33.7189 72.6276 34.0977 73.5576 34.7923C75.1133 35.954 75.7736 38.1042 75.6858 39.9783C75.5044 43.8496 72.0523 46.5404 68.4772 47.3348C65.67 47.9586 62.2297 47.6387 60.3132 45.2668C57.8524 42.2218 59.2479 38.019 59.2545 34.4855C59.2565 33.4037 56.7774 32.1248 56.7747 33.6065C56.7675 37.5072 55.6109 41.3888 57.8263 44.9473C59.5233 47.6738 62.5117 49.4195 65.7051 49.784C69.0581 50.1669 72.7484 49.1807 75.2733 46.9247C77.8171 44.6515 78.652 41.2967 77.7895 38.1573C80.5548 37.9601 81.3298 35.0476 82.8657 33.2172C84.4762 31.2982 88.8889 29.6572 90.9255 31.9241C92.7724 33.9797 91.0746 38.0869 88.9578 39.2534C88.0966 39.7279 87.0672 39.962 86.082 39.918C85.9974 39.9144 85.5011 39.8264 85.1304 39.7388C85.1314 39.6434 85.1406 39.548 85.1579 39.4527C85.1944 39.1416 85.3008 38.8411 85.4017 38.5467C85.6495 37.8256 83.678 35.9493 83.4646 36.57C82.6961 38.8064 84.075 41.2882 86.3596 42.0123C88.5498 42.7066 91.1741 41.7652 92.4209 39.8847C96.1144 34.3134 89.9985 26.6975 83.7107 29.1549ZM84.7147 39.5883C84.7275 39.6008 84.7403 39.6137 84.7527 39.6264C84.7224 39.6121 84.7082 39.5987 84.7147 39.5883Z" fill="#1E0342"/>
<path d="M88.9688 19.6565C89.531 19.5101 90.3567 19.0464 90.6528 18.5323C90.8935 18.1142 90.8842 17.8614 90.2992 18.0137C85.3768 19.2968 79.5046 18.6174 76.8231 13.7994C76.5442 13.2986 74.1003 14.7761 74.4415 15.3894C77.3299 20.5791 83.759 21.0145 88.9688 19.6565Z" fill="#1E0342"/>
<path d="M79.5511 13.2362C81.0337 14.507 82.8616 15.3665 84.7929 15.7055C85.2153 15.7798 86.0682 15.8711 86.0623 15.234C86.0572 14.6589 85.066 14.1912 84.6121 14.1114C83.3603 13.8917 82.3345 13.4147 81.3718 12.5892C80.9287 12.2094 80.0231 11.8625 79.4475 12.115C78.8408 12.3807 79.1876 12.9245 79.5511 13.2362Z" fill="#1E0342"/>
</svg>
